<svg width="465" height="60" viewBox="0 0 465 60" fill="none" xmlns="http://www.w3.org/2000/svg">
<path d="M362.923 1.12512C364.034 6.00012 365.887 10.3126 368.851 14.4376H357.55C353.104 9.18762 351.807 3.75012 351.437 1.12512H362.923ZM348.473 1.12512C349.214 6.18762 351.252 10.5001 354.401 14.4376H343.1C338.839 9.18762 337.542 3.56262 337.172 1.12512H348.473ZM357.18 28.1251C362.552 22.3126 366.072 19.8751 371.63 17.4376H337.357V28.1251M349.584 42.1876C351.066 37.6876 352.363 35.0626 354.771 31.5001H337.357V42.1876M374.594 53.8126C374.779 48.9376 377.744 43.1251 385.524 42.0001L414.24 42.1876V31.5001L384.413 31.3126C369.222 32.6251 364.22 47.0626 364.405 53.6251" fill="#244082"/>
<path d="M361.068 53.9627C361.624 47.2127 363.476 41.2127 368.108 36.5252C374.777 29.4001 383.114 28.2752 386.634 28.4627L414.422 28.2752V17.5876H385.151C376.074 17.9626 367.181 22.2751 360.883 29.0252C357.918 32.2127 355.51 35.9627 353.843 39.5252C351.064 46.0877 351.064 51.5252 350.879 53.7752M415.904 17.5876H436.468V24.3376H435.727C435.542 23.0251 435.171 22.0877 434.616 21.3377C434.06 20.5877 433.504 20.0251 432.763 19.6501C432.022 19.2751 430.91 19.2751 429.428 19.2751H424.982V28.8377H428.132C431.466 28.8377 434.06 29.4001 435.542 30.7126C437.024 32.0251 437.765 33.5251 437.765 35.5877C437.765 37.0877 437.395 38.2126 436.653 39.1501C435.912 40.0877 434.801 40.8377 433.689 41.4002C432.578 41.9627 430.725 42.1502 428.502 42.1502H415.719V41.4002C417.201 41.4002 418.128 41.2127 418.498 40.8377C418.869 40.4627 419.054 39.7127 419.054 38.4002V21.5251C419.054 20.2126 418.869 19.2751 418.498 18.7126C418.128 18.3376 417.201 18.1501 415.719 18.1501M424.982 30.5252V38.0252C424.982 39.1502 425.167 40.0877 425.538 40.4627C425.908 41.0252 426.464 41.2127 427.391 41.2127C428.687 41.2127 429.799 40.6502 430.54 39.7127C431.281 38.7752 431.651 37.6502 431.651 36.1502C431.651 34.8377 431.281 33.5251 430.725 32.5876C430.169 31.6501 429.428 31.0877 428.687 30.9002C427.576 30.7127 426.464 30.5252 424.982 30.5252ZM451.474 17.5876H462.96V18.3376C461.478 18.3376 460.552 18.5251 460.181 18.9001C459.811 19.2751 459.626 20.0251 459.626 21.1501V38.5877C459.626 39.5252 459.626 40.0877 459.811 40.4627C459.996 40.8377 460.181 41.0252 460.552 41.4002C460.922 41.5877 461.478 41.7752 462.219 41.7752H462.96V42.5252H450.548V41.7752C451.659 41.7752 452.4 41.5877 452.771 41.5877C453.141 41.4002 453.512 41.2127 453.697 40.8377C453.883 40.4627 453.883 39.9002 453.883 39.1501V31.0877C451.104 32.5877 448.51 33.3377 446.287 33.3377C444.99 33.3377 444.064 33.1501 443.138 32.7751C442.211 32.4001 441.655 31.8377 441.285 30.9002C440.914 30.1502 440.729 29.0252 440.729 27.5252V21.7126C440.729 20.4001 440.544 19.4627 439.988 19.0877C439.432 18.7127 438.691 18.5251 437.395 18.5251V17.5876H448.881V18.3376C448.14 18.3376 447.584 18.5251 447.028 18.9001C446.657 19.2751 446.287 20.0252 446.287 20.9627V27.5252C446.287 28.2752 446.287 28.8377 446.472 29.2127C446.657 29.5877 446.843 29.9627 447.398 30.1502C447.769 30.5252 448.51 30.5252 449.251 30.5252C450.733 30.5252 452.215 30.1502 453.883 29.2127V21.5251C453.883 20.4001 453.883 19.6501 453.697 19.2751C453.512 18.9001 453.327 18.5251 452.956 18.3376C452.586 18.1501 452.03 17.9626 451.289 17.9626M332.538 5.21265V4.83765C332.538 2.58765 331.056 2.40015 328.277 2.40015C325.498 2.40015 323.831 2.77515 323.831 5.21265C323.831 6.90015 324.942 7.46265 326.054 7.65015L328.833 8.02515C329.944 8.21265 330.13 8.58765 330.13 8.96265C329.944 9.52515 329.574 9.52515 328.277 9.52515C326.98 9.52515 326.424 9.52515 326.424 8.58765H323.646C323.646 11.2126 325.128 11.5876 328.092 11.5876C331.982 11.5876 332.723 11.0251 332.723 8.58765C332.723 7.46265 332.167 6.71265 330.685 6.52515L327.906 6.15015C326.98 5.77515 326.61 5.77515 326.61 5.02515C326.61 4.46265 326.795 4.27515 328.277 4.27515C329.389 4.27515 329.944 4.27515 329.944 5.21265M311.789 2.58765V11.5876H314.568L314.383 4.65015L317.532 11.4001H322.349V2.40015H319.57L319.755 9.33765L316.606 2.40015M306.787 8.21265H304.193L305.49 4.27515M307.343 9.90015L307.898 11.4001H310.677L307.528 2.58765H303.267L300.118 11.5876H303.082L303.638 10.0876M293.263 4.46265H295.486C296.412 4.46265 296.598 4.65015 296.598 5.58765C296.598 6.71265 296.598 6.90015 295.486 6.90015H293.263M293.263 8.96265H295.486C296.412 8.96265 296.598 9.33765 296.598 10.0876V11.5876H299.377V9.71265C299.377 8.77515 298.821 8.21265 297.524 8.21265V8.02515C299.191 7.65015 299.377 7.08765 299.377 5.21265C299.377 3.15015 298.265 2.58765 295.857 2.58765H290.484V11.5876H293.263M286.408 4.65015H289.187V2.58765H280.665V4.65015H283.444V11.5876H286.223M273.626 4.65015H275.849C276.775 4.65015 276.96 4.83765 276.96 5.77515C276.96 6.90015 276.96 7.08765 275.849 7.08765H273.626M273.626 8.96265H275.849C276.775 8.96265 276.96 9.33765 276.96 10.0876V11.5876H279.739V9.71265C279.739 8.77515 279.183 8.21265 277.887 8.21265V8.02515C279.554 7.65015 279.739 7.08765 279.739 5.21265C279.739 3.15015 278.628 2.58765 276.219 2.58765H270.847V11.5876H273.626M264.177 4.65015H268.994V2.77515H261.398V11.7751H269.179V9.90015H264.363V8.21265H268.809V6.52515H264.363M257.323 4.83765H260.102V2.77515H251.58V4.83765H254.359V11.7751H257.138M239.908 2.77515V11.7751H242.687L242.502 4.83765L245.651 11.7751H250.468V2.77515H247.689L247.875 9.52515L244.725 2.58765M238.241 2.77515H235.462V11.7751H238.241M229.719 2.77515H226.94V11.7751H234.165V9.71265H229.719M220.086 4.65015H224.902V2.77515H217.307V11.7751H225.088V9.90015H220.271V8.21265H224.717V6.52515H220.271M209.526 8.02515H211.749C212.675 8.02515 213.046 8.21265 213.046 8.96265C213.046 9.71265 212.675 9.90015 211.749 9.90015H209.711M209.526 4.83765H211.934C212.675 4.83765 212.861 5.02515 212.861 5.58765C212.861 6.33765 212.675 6.52515 211.564 6.52515H209.526M206.747 11.7751H212.305C214.528 11.7751 215.825 11.4001 215.825 9.33765C215.825 8.21265 215.64 7.46265 213.972 7.27515V7.08765C215.454 6.90015 215.64 6.15015 215.64 5.02515C215.64 3.15015 214.343 2.77515 212.305 2.77515H206.747M332.908 25.8377V24.9002C332.908 19.0876 329.018 17.5876 322.163 17.5876C314.383 17.5876 309.751 18.7126 309.751 26.2126V32.0252C309.751 40.2752 314.938 40.6502 322.163 40.6502C330.315 40.6502 332.908 38.9627 332.908 32.5876V31.8377H325.683V32.5876C325.683 35.2126 324.201 35.4001 321.422 35.4001C317.161 35.4001 316.976 34.0877 316.976 30.7126V27.1501C316.976 23.9626 317.347 22.8377 321.422 22.8377C323.831 22.8377 325.683 23.2127 325.683 25.0877V26.0252M289.743 17.9626H282.703V40.4627H289.743V31.6501H298.821V40.4627H305.861V17.9626H298.821V26.4002H289.743M270.291 32.2127H263.807L266.956 22.4626M271.773 36.5252L273.07 40.4627H280.295L272.329 17.9626H261.584L253.803 40.4627H261.028L262.325 36.5252M238.056 23.0251H242.873C245.651 23.0251 246.022 23.7752 246.022 26.0252C246.022 28.8377 245.466 29.4002 242.873 29.4002H238.056M238.056 34.2752H244.355C251.765 34.2752 253.247 32.2127 253.247 26.0252C253.247 20.2127 250.839 18.1501 244.169 18.1501H231.016V40.6502H238.056M221.012 23.4001H228.052V18.1501H206.932V23.4001H213.972V40.6502H221.012M189.518 23.2127H194.335C197.114 23.2127 197.484 23.9626 197.484 26.2126C197.484 29.0252 196.928 29.5877 194.335 29.5877H189.518M189.518 34.4626H195.817C203.227 34.4626 204.709 32.4002 204.709 26.2126C204.709 20.4001 202.301 18.3376 195.632 18.3376H182.478V40.8377H189.518M165.62 23.2127H177.661V18.3376H158.765V40.8377H178.032V35.9627H165.805V31.6501H177.106V27.5252H165.805M148.576 23.5877H155.616V18.3376H134.496V23.5877H141.536V40.8377H148.576M115.229 18.5251H108.189V41.0252H115.229V32.2127H124.307V41.0252H131.347V18.5251H124.307V26.9627H115.229M85.9583 18.5251H79.2889V41.0252H88.9224L96.7033 26.2126H96.8885V41.0252H103.558V18.5251H94.2949L86.1435 33.3377H85.9583M53.5379 18.7126V33.3377C53.5379 35.5877 52.7969 36.3376 50.9443 36.3376C50.018 36.3376 49.4622 36.3377 48.7212 36.1502V41.0252C49.8328 41.2127 50.7591 41.2127 52.2411 41.2127C57.6136 41.2127 60.022 38.0252 60.022 33.1502V23.7752H67.6176V41.0252H74.6575V18.5251M33.9005 23.5877H45.9423V18.7126H27.0459V41.2127H46.3128V36.3376H34.0858V32.0252H45.3866V27.9002H34.0858M8.33476 32.0252H13.1515C15.1893 32.0252 15.9304 32.4002 15.9304 34.2752C15.9304 35.9627 15.1893 36.3377 13.1515 36.5252H8.33476M20.5619 18.7126H1.29492V41.2127H14.8188C20.1913 41.2127 22.9702 39.3377 22.9702 34.2752C22.9702 29.2127 20.1913 27.3377 14.8188 27.3377H8.33476V23.4001H20.5619M1.48018 47.2127H10.5579V49.0877H7.22321V55.8377H4.62958V49.0877H1.48018M12.0399 47.2127H14.4483V48.5252C14.8188 48.1502 15.1893 47.7752 15.7451 47.4002C16.3009 47.0252 17.0419 47.0252 17.5977 47.0252C18.7093 47.0252 19.8208 47.4002 20.5619 48.1502C21.3029 48.9002 21.8587 50.0252 21.8587 51.5252C21.8587 53.0252 21.4881 54.1502 20.5619 54.9002C19.8208 55.6502 18.7093 56.0252 17.5977 56.0252C17.0419 56.0252 16.4862 55.8377 16.1156 55.6502C15.7451 55.4627 15.1893 55.0877 14.6336 54.7127V59.0252H12.0399M14.6336 51.3377C14.6336 52.2752 14.8188 53.0252 15.3746 53.4002C15.7451 53.7752 16.3009 54.1502 17.0419 54.1502C17.5977 54.1502 18.1535 53.9627 18.524 53.5877C18.8945 53.2127 19.0798 52.4627 19.0798 51.5252C19.0798 50.5877 18.8945 50.0252 18.524 49.4627C18.1535 48.9002 17.5977 48.7127 17.0419 48.7127C16.3009 48.7127 15.9304 48.9002 15.3746 49.2752C14.8188 49.8377 14.6336 50.4002 14.6336 51.3377ZM25.9344 49.8377L23.526 49.4627C23.7113 48.7127 24.267 47.9627 25.0081 47.5877C25.7491 47.2127 26.6754 47.0252 27.9722 47.0252C29.0838 47.0252 30.0101 47.2127 30.5658 47.4002C31.1216 47.5877 31.4921 47.9627 31.8626 48.3377C32.0479 48.7127 32.2332 49.4627 32.2332 50.4002V53.0252C32.2332 53.7752 32.2332 54.3377 32.4184 54.7127C32.4184 55.0877 32.6037 55.4627 32.9742 55.8377H30.3806C30.3806 55.6502 30.1953 55.4627 30.1953 55.0877C30.1953 54.9002 30.1953 54.9002 30.0101 54.9002C29.6395 55.2752 29.0838 55.6502 28.528 55.8377C27.9722 56.0252 27.4164 56.2127 26.8607 56.2127C25.7491 56.2127 25.0081 56.0252 24.4523 55.4627C23.8965 54.9002 23.526 54.3377 23.526 53.5877C23.526 53.0252 23.7113 52.6502 23.8965 52.2752C24.0818 51.9002 24.6376 51.5252 25.0081 51.3377C25.5638 51.1502 26.1196 50.9627 27.0459 50.7752C28.3427 50.5877 29.0838 50.4002 29.6395 50.2127V50.0252C29.6395 49.6502 29.4543 49.2752 29.269 49.0877C29.0838 48.9002 28.528 48.9002 27.787 48.9002C27.2312 48.9002 26.8607 48.9002 26.6754 49.0877M29.4543 51.7127C29.0838 51.9002 28.528 51.9002 27.787 52.0877C27.0459 52.2752 26.4901 52.2752 26.3049 52.4627C26.1196 52.6502 25.9344 52.8377 25.9344 53.2127C25.9344 53.5877 26.1196 53.7752 26.3049 53.9627C26.6754 54.1502 26.8607 54.3377 27.4164 54.3377C27.9722 54.3377 28.3427 54.1502 28.7132 53.9627C29.0838 53.7752 29.269 53.5877 29.269 53.2127C29.269 53.0252 29.4543 52.6502 29.4543 52.0877M34.6415 47.2127H37.2352V50.4002H41.1256V47.2127H43.7192V55.8377H41.1256V52.2752H37.2352V55.8377H34.6415M55.2053 49.6502L52.6116 50.0252C52.6116 49.6502 52.2411 49.2752 52.0559 49.0877C51.6854 48.9002 51.3148 48.7127 50.7591 48.7127C50.018 48.7127 49.6475 48.9002 49.0917 49.2752C48.7212 49.6502 48.536 50.4002 48.536 51.3377C48.536 52.2752 48.7212 53.0252 49.0917 53.5877C49.4622 53.9627 50.018 54.1502 50.7591 54.1502C51.3148 54.1502 51.6854 53.9627 52.0559 53.7752C52.4264 53.5877 52.6116 53.0252 52.7969 52.4627L55.3905 52.8377C55.2053 53.9627 54.6495 54.7127 53.9085 55.0877C53.1674 55.6502 52.0559 55.8377 50.7591 55.8377C49.277 55.8377 48.1654 55.4627 47.2391 54.7127C46.3128 53.9627 45.9423 52.8377 45.9423 51.3377C45.9423 49.8377 46.3128 48.7127 47.2391 47.9627C48.1654 47.2127 49.277 46.8377 50.7591 46.8377C52.0559 46.8377 52.9822 47.0252 53.7232 47.5877C54.4642 48.1502 54.8348 48.7127 55.2053 49.6502ZM57.0579 47.2127H65.9503V55.8377H63.3567V49.0877H59.8367V55.8377H57.2431M68.3587 51.3377C68.3587 50.5877 68.5439 49.8377 69.0997 49.0877C69.4702 48.3377 70.2113 47.7752 70.9523 47.4002C71.6933 47.0252 72.6196 46.8377 73.5459 46.8377C75.028 46.8377 76.3248 47.2127 77.2511 48.1502C78.1774 49.0877 78.7332 50.0252 78.7332 51.3377C78.7332 52.6502 78.1774 53.7752 77.2511 54.5252C76.3248 55.4627 75.028 55.8377 73.5459 55.8377C72.6196 55.8377 71.6933 55.6502 70.9523 55.2752C70.026 54.9002 69.4702 54.3377 69.0997 53.7752M71.1376 51.5252C71.1376 52.4627 71.3228 53.0252 71.8786 53.5877C72.4344 53.9627 72.9901 54.3377 73.5459 54.3377C74.1017 54.3377 74.8427 54.1502 75.2132 53.5877C75.769 53.2127 75.9543 52.4627 75.9543 51.5252C75.9543 50.5877 75.769 50.0252 75.2132 49.6502C74.6575 49.2752 74.1017 48.9002 73.5459 48.9002C72.9901 48.9002 72.2491 49.0877 71.8786 49.6502C71.3228 50.0252 71.1376 50.5877 71.1376 51.5252ZM80.771 47.2127H83.1794V48.5252C83.5499 48.1502 83.9204 47.7752 84.4762 47.4002C85.032 47.2127 85.5877 47.0252 86.3288 47.0252C87.4403 47.0252 88.5519 47.4002 89.2929 48.1502C90.034 48.9002 90.5897 50.0252 90.5897 51.5252C90.5897 53.0252 90.2192 54.1502 89.2929 54.9002C88.5519 55.6502 87.4403 56.0252 86.3288 56.0252C85.773 56.0252 85.2172 55.8377 84.8467 55.6502C84.4762 55.4627 83.9204 55.0877 83.3646 54.7127V59.0252H80.771M83.3646 51.3377C83.3646 52.2752 83.5499 53.0252 84.1057 53.4002C84.4762 53.7752 85.032 54.1502 85.773 54.1502C86.3288 54.1502 86.8846 53.9627 87.2551 53.5877C87.6256 53.2127 87.8109 52.4627 87.8109 51.5252C87.8109 50.5877 87.6256 50.0252 87.2551 49.4627C86.8846 49.0877 86.3288 48.7127 85.773 48.7127C85.032 48.7127 84.6615 48.9002 84.1057 49.2752C83.5499 49.8377 83.3646 50.4002 83.3646 51.3377ZM91.1455 47.2127H100.223V49.0877H97.0738V55.8377H94.4802V49.0877H91.3308M101.705 47.2127H104.299V50.4002H108.189V47.2127H110.783V55.8377H108.189V52.2752H104.299V55.8377H101.705M113.006 51.3377C113.006 50.5877 113.191 49.8377 113.747 49.0877C114.118 48.3377 114.859 47.7752 115.6 47.4002C116.341 47.0252 117.267 46.8377 118.193 46.8377C119.675 46.8377 120.972 47.2127 121.899 48.1502C122.825 49.0877 123.381 50.0252 123.381 51.3377C123.381 52.6502 122.825 53.7752 121.899 54.5252C120.972 55.4627 119.675 55.8377 118.193 55.8377C117.267 55.8377 116.341 55.6502 115.6 55.2752C114.673 54.9002 114.118 54.3377 113.747 53.7752M115.785 51.5252C115.785 52.4627 115.97 53.0252 116.526 53.5877C117.082 53.9627 117.638 54.3377 118.193 54.3377C118.934 54.3377 119.49 54.1502 119.861 53.5877C120.416 53.2127 120.602 52.4627 120.602 51.5252C120.602 50.5877 120.416 50.0252 119.861 49.6502C119.305 49.2752 118.749 48.9002 118.193 48.9002C117.452 48.9002 116.897 49.0877 116.526 49.6502C115.97 50.0252 115.785 50.5877 115.785 51.5252ZM125.233 52.6502V50.4002H130.42V52.6502M132.644 47.2127H141.536V55.8377H138.942V49.0877H135.237V53.0252C135.237 53.9627 135.052 54.7127 134.867 55.0877C134.681 55.4627 134.311 55.8377 133.94 55.8377C133.57 56.0252 133.014 56.0252 132.458 56.0252C132.088 56.0252 131.532 56.0252 130.791 55.8377V54.1502H131.717C132.088 54.1502 132.273 53.9627 132.458 53.7752C132.458 53.5877 132.644 53.0252 132.644 52.0877M143.389 51.3377C143.389 50.5877 143.574 49.8377 144.13 49.0877C144.5 48.3377 145.241 47.7752 145.982 47.4002C146.723 47.0252 147.649 46.8377 148.576 46.8377C150.058 46.8377 151.355 47.2127 152.281 48.1502C153.207 49.0877 153.763 50.0252 153.763 51.3377C153.763 52.6502 153.207 53.7752 152.281 54.5252C151.355 55.4627 150.058 55.8377 148.576 55.8377C147.649 55.8377 146.723 55.6502 145.982 55.2752C145.056 54.9002 144.5 54.3377 144.13 53.7752C143.574 53.2127 143.389 52.2752 143.389 51.3377ZM146.167 51.5252C146.167 52.4627 146.353 53.0252 146.908 53.5877C147.464 53.9627 148.02 54.3377 148.576 54.3377C149.132 54.3377 149.873 54.1502 150.243 53.5877C150.799 53.2127 150.984 52.4627 150.984 51.5252C150.984 50.5877 150.799 50.0252 150.243 49.6502C149.687 49.2752 149.132 48.9002 148.576 48.9002C148.02 48.9002 147.279 49.0877 146.908 49.6502C146.353 50.0252 146.167 50.5877 146.167 51.5252ZM155.801 47.2127H162.655V49.0877H158.58V55.8377H155.986M163.767 47.2127H166.361V52.6502L170.436 47.2127H173.03V55.8377H170.436V50.2127L166.361 55.8377H163.767M184.516 49.6502L181.922 50.0252C181.922 49.6502 181.552 49.2752 181.367 49.0877C180.996 48.9002 180.626 48.7127 180.07 48.7127C179.329 48.7127 178.958 48.9002 178.402 49.2752C178.032 49.6502 177.847 50.4002 177.847 51.3377C177.847 52.2752 178.032 53.0252 178.402 53.5877C178.773 53.9627 179.329 54.1502 180.07 54.1502C180.626 54.1502 180.996 53.9627 181.367 53.7752C181.737 53.5877 181.922 53.0252 182.108 52.4627L184.701 52.8377C184.516 53.9627 183.96 54.7127 183.219 55.0877C182.478 55.6502 181.367 55.8377 180.07 55.8377C178.588 55.8377 177.476 55.4627 176.55 54.7127C175.624 53.9627 175.253 52.8377 175.253 51.3377C175.253 49.8377 175.624 48.7127 176.55 47.9627C177.476 47.2127 178.588 46.8377 180.07 46.8377C181.367 46.8377 182.293 47.0252 183.034 47.5877M185.442 47.2127H194.52V49.0877H191.371V55.8377H188.777V49.0877H185.628M196.002 47.2127H198.596V52.6502L202.671 47.2127H205.265V55.8377H202.671V50.2127L198.596 55.8377H196.002M207.673 47.2127H210.452V49.2752C210.452 49.8377 210.452 50.0252 210.638 50.4002L211.193 50.9627C211.564 51.1502 211.934 51.1502 212.49 51.1502C213.046 51.1502 213.416 51.1502 214.157 50.9627V47.2127H216.751V55.8377H214.157V52.4627C213.046 52.6502 212.305 52.8377 211.749 52.8377C211.008 52.8377 210.267 52.6502 209.526 52.4627C208.785 52.0877 208.414 51.7127 208.229 51.3377C208.044 50.7752 207.859 50.2127 207.859 49.4627M225.088 53.0252L227.681 53.4002C227.311 54.1502 226.755 54.9002 226.014 55.2752C225.273 55.6502 224.347 56.0252 223.235 56.0252C221.568 56.0252 220.271 55.4627 219.345 54.5252C218.604 53.7752 218.418 52.6502 218.418 51.5252C218.418 50.0252 218.789 48.9002 219.715 48.1502C220.642 47.4002 221.753 47.0252 223.05 47.0252C224.532 47.0252 225.644 47.4002 226.57 48.3377C227.496 49.2752 227.867 50.4002 227.867 52.2752H221.197C221.197 53.0252 221.383 53.4002 221.753 53.7752C222.124 54.1502 222.679 54.3377 223.235 54.3377C223.606 54.3377 223.976 54.1502 224.347 53.9627C224.717 53.7752 224.902 53.4002 225.088 53.0252ZM225.273 50.7752C225.273 50.0252 225.088 49.6502 224.717 49.2752C224.347 48.9002 223.791 48.7127 223.42 48.7127C222.865 48.7127 222.309 48.9002 221.938 49.2752C221.568 49.6502 221.383 50.2127 221.383 50.7752M238.612 49.6502L236.018 50.0252C236.018 49.6502 235.647 49.2752 235.462 49.0877C235.092 48.9002 234.721 48.7127 234.165 48.7127C233.424 48.7127 233.054 48.9002 232.498 49.2752C232.128 49.6502 231.942 50.4002 231.942 51.3377C231.942 52.2752 232.128 53.0252 232.498 53.5877C232.869 53.9627 233.424 54.1502 234.165 54.1502C234.721 54.1502 235.092 53.9627 235.462 53.7752C235.833 53.5877 236.018 53.0252 236.203 52.4627L238.797 52.8377C238.612 53.9627 238.056 54.7127 237.315 55.0877C236.574 55.6502 235.462 55.8377 234.165 55.8377C232.683 55.8377 231.572 55.4627 230.646 54.7127C229.719 53.9627 229.349 52.8377 229.349 51.3377C229.349 49.8377 229.719 48.7127 230.646 47.9627C231.572 47.2127 232.683 46.8377 234.165 46.8377C235.462 46.8377 236.389 47.0252 237.13 47.5877M240.464 47.2127H243.058V50.7752C243.428 50.7752 243.799 50.5877 243.984 50.4002C244.169 50.2127 244.355 49.8377 244.725 49.0877C245.096 48.1502 245.466 47.7752 245.837 47.4002C246.207 47.2127 246.763 47.0252 247.504 47.0252H248.616V48.5252C247.875 48.5252 247.504 48.5252 247.319 48.7127C247.134 48.9002 246.948 49.2752 246.763 49.8377C246.393 50.5877 246.022 51.1502 245.466 51.3377C246.393 51.5252 246.948 52.0877 247.504 53.2127C247.504 53.2127 247.504 53.4002 247.689 53.4002L249.171 55.8377H246.393L245.096 53.4002C244.91 52.8377 244.54 52.6502 244.355 52.4627C244.169 52.2752 243.799 52.2752 243.428 52.2752V56.0252H240.835M250.283 47.2127H252.877V52.6502L256.952 47.2127H259.546V55.8377H256.952V50.2127L252.877 55.8377H250.283M262.14 47.2127H264.733V52.6502L268.809 47.2127H271.402V55.8377H268.809V50.2127L264.733 55.8377H262.14M268.438 43.6502H269.735C269.735 44.4002 269.365 44.9627 268.809 45.3377C268.253 45.7127 267.512 45.9002 266.771 45.9002C265.845 45.9002 265.289 45.7127 264.733 45.3377C264.177 44.9627 263.992 44.4002 263.807 43.6502H265.104C265.104 44.0252 265.289 44.4002 265.659 44.5877C265.845 44.7752 266.4 44.9627 266.771 44.9627C267.142 44.9627 267.697 44.7752 267.883 44.5877M279.369 47.2127H281.962V53.9627H285.667V47.2127H288.261V53.9627H289.373V58.0877H287.149V55.8377H279.183M297.339 53.0252L299.932 53.4002C299.562 54.1502 299.006 54.9002 298.265 55.2752C297.524 55.6502 296.598 56.0252 295.486 56.0252C293.819 56.0252 292.522 55.4627 291.596 54.5252C290.855 53.7752 290.669 52.6502 290.669 51.5252C290.669 50.0252 291.04 48.9002 291.966 48.1502C292.893 47.4002 294.004 47.0252 295.301 47.0252C296.783 47.0252 297.895 47.4002 298.821 48.3377C299.747 49.2752 300.118 50.4002 300.118 52.2752H293.448C293.448 53.0252 293.634 53.4002 294.004 53.7752C294.375 54.1502 294.93 54.3377 295.486 54.3377C295.857 54.3377 296.227 54.1502 296.598 53.9627M297.339 50.7752C297.339 50.0252 297.153 49.6502 296.783 49.2752C296.412 48.9002 295.857 48.7127 295.486 48.7127C294.93 48.7127 294.375 48.9002 294.004 49.2752C293.634 49.6502 293.448 50.2127 293.448 50.7752M302.155 47.2127H304.749V50.4002H308.64V47.2127H311.233V55.8377H308.64V52.2752H304.749V55.8377H302.155M312.715 47.2127H321.793V49.0877H318.643V55.8377H316.05V49.0877H312.9M323.275 47.2127H325.683V48.5252C326.054 48.1502 326.424 47.7752 326.98 47.4002C327.536 47.2127 328.092 47.0252 328.833 47.0252C329.944 47.0252 331.056 47.4002 331.797 48.1502C332.538 48.9002 333.094 50.0252 333.094 51.5252C333.094 53.0252 332.723 54.1502 331.797 54.9002C331.056 55.6502 329.944 56.0252 328.833 56.0252C328.277 56.0252 327.721 55.8377 327.351 55.6502C326.98 55.4627 326.424 55.0877 325.869 54.7127V59.0252H323.275M326.054 51.3377C326.054 52.2752 326.239 53.0252 326.795 53.4002C327.165 53.7752 327.721 54.1502 328.462 54.1502C329.018 54.1502 329.574 53.9627 329.944 53.5877C330.315 53.2127 330.5 52.4627 330.5 51.5252C330.5 50.5877 330.315 50.0252 329.944 49.4627C329.574 49.0877 329.018 48.7127 328.462 48.7127C327.721 48.7127 327.351 48.9002 326.795 49.2752C326.239 49.8377 326.054 50.4002 326.054 51.3377Z" fill="#244082"/>
</svg>
