<svg width="260" height="260" viewBox="0 0 260 260" fill="none" xmlns="http://www.w3.org/2000/svg">
<path d="M104.184 0H93.4844V10.6992H104.184V0Z" fill="white"/>
<path d="M145.738 0H135.039V10.6992H145.738V0Z" fill="white"/>
<path d="M93.8048 10.3876H83.1055V21.0867H93.8048V10.3876Z" fill="white"/>
<path d="M104.184 10.3876H93.4844V21.0867H104.184V10.3876Z" fill="white"/>
<path d="M124.965 10.3876H114.266V21.0867H124.965V10.3876Z" fill="white"/>
<path d="M135.352 10.3875H124.652V21.0866H135.352V10.3875Z" fill="white"/>
<path d="M145.738 10.3875H135.039V21.0866H145.738V10.3875Z" fill="white"/>
<path d="M156.125 10.3876H145.426V21.0867H156.125V10.3876Z" fill="white"/>
<path d="M166.52 10.3876H155.82V21.0867H166.52V10.3876Z" fill="white"/>
<path d="M176.902 10.3876H166.203V21.0868H176.902V10.3876Z" fill="white"/>
<path d="M104.184 20.7751H93.4844V31.4742H104.184V20.7751Z" fill="white"/>
<path d="M114.578 20.7751H103.879V31.4742H114.578V20.7751Z" fill="white"/>
<path d="M124.965 20.7751H114.266V31.4742H124.965V20.7751Z" fill="white"/>
<path d="M156.125 20.7751H145.426V31.4743H156.125V20.7751Z" fill="white"/>
<path d="M166.52 20.7751H155.82V31.4743H166.52V20.7751Z" fill="white"/>
<path d="M93.8048 31.1626H83.1055V41.8618H93.8048V31.1626Z" fill="white"/>
<path d="M104.184 31.1626H93.4844V41.8618H104.184V31.1626Z" fill="white"/>
<path d="M124.965 31.1626H114.266V41.8618H124.965V31.1626Z" fill="white"/>
<path d="M176.902 31.1626H166.203V41.8618H176.902V31.1626Z" fill="white"/>
<path d="M114.578 41.5501H103.879V52.2493H114.578V41.5501Z" fill="white"/>
<path d="M135.352 41.5501H124.652V52.2493H135.352V41.5501Z" fill="white"/>
<path d="M145.738 41.5501H135.039V52.2493H145.738V41.5501Z" fill="white"/>
<path d="M176.902 41.5501H166.203V52.2493H176.902V41.5501Z" fill="white"/>
<path d="M93.8048 51.9376H83.1055V62.6368H93.8048V51.9376Z" fill="white"/>
<path d="M114.578 51.9376H103.879V62.6368H114.578V51.9376Z" fill="white"/>
<path d="M145.738 51.9376H135.039V62.6368H145.738V51.9376Z" fill="white"/>
<path d="M156.125 51.9376H145.426V62.6368H156.125V51.9376Z" fill="white"/>
<path d="M166.52 51.9376H155.82V62.6368H166.52V51.9376Z" fill="white"/>
<path d="M93.8048 62.3251H83.1055V73.0242H93.8048V62.3251Z" fill="white"/>
<path d="M114.578 62.3251H103.879V73.0242H114.578V62.3251Z" fill="white"/>
<path d="M135.352 62.3252H124.652V73.0244H135.352V62.3252Z" fill="white"/>
<path d="M156.125 62.3251H145.426V73.0243H156.125V62.3251Z" fill="white"/>
<path d="M176.902 62.325H166.203V73.0242H176.902V62.325Z" fill="white"/>
<path d="M135.352 72.7126H124.652V83.4118H135.352V72.7126Z" fill="white"/>
<path d="M145.738 72.7126H135.039V83.4117H145.738V72.7126Z" fill="white"/>
<path d="M10.6993 83.1003H0V93.7994H10.6993V83.1003Z" fill="white"/>
<path d="M21.086 83.1003H10.3867V93.7995H21.086V83.1003Z" fill="white"/>
<path d="M31.4688 83.1002H20.7695V93.7994H31.4688V83.1002Z" fill="white"/>
<path d="M41.8594 83.1004H31.1602V93.7996H41.8594V83.1004Z" fill="white"/>
<path d="M52.2383 83.1003H41.5391V93.7995H52.2383V83.1003Z" fill="white"/>
<path d="M73.0157 83.1003H62.3164V93.7995H73.0157V83.1003Z" fill="white"/>
<path d="M83.4141 83.1003H72.7148V93.7995H83.4141V83.1003Z" fill="white"/>
<path d="M93.8048 83.1003H83.1055V93.7995H93.8048V83.1003Z" fill="white"/>
<path d="M104.184 83.1003H93.4844V93.7995H104.184V83.1003Z" fill="white"/>
<path d="M114.578 83.1003H103.879V93.7995H114.578V83.1003Z" fill="white"/>
<path d="M135.352 83.1002H124.652V93.7994H135.352V83.1002Z" fill="white"/>
<path d="M156.125 83.1003H145.426V93.7995H156.125V83.1003Z" fill="white"/>
<path d="M166.52 83.1003H155.82V93.7995H166.52V83.1003Z" fill="white"/>
<path d="M187.281 83.1003H176.582V93.7995H187.281V83.1003Z" fill="white"/>
<path d="M208.066 83.1004H197.367V93.7996H208.066V83.1004Z" fill="white"/>
<path d="M228.848 83.1003H218.148V93.7995H228.848V83.1003Z" fill="white"/>
<path d="M249.617 83.1003H238.918V93.7995H249.617V83.1003Z" fill="white"/>
<path d="M21.086 93.4877H10.3867V104.187H21.086V93.4877Z" fill="white"/>
<path d="M31.4688 93.4877H20.7695V104.187H31.4688V93.4877Z" fill="white"/>
<path d="M41.8594 93.4878H31.1602V104.187H41.8594V93.4878Z" fill="white"/>
<path d="M52.2383 93.4877H41.5391V104.187H52.2383V93.4877Z" fill="white"/>
<path d="M62.629 93.4877H51.9297V104.187H62.629V93.4877Z" fill="white"/>
<path d="M104.184 93.4877H93.4844V104.187H104.184V93.4877Z" fill="white"/>
<path d="M176.902 93.4878H166.203V104.187H176.902V93.4878Z" fill="white"/>
<path d="M208.066 93.4878H197.367V104.187H208.066V93.4878Z" fill="white"/>
<path d="M249.617 93.4877H238.918V104.187H249.617V93.4877Z" fill="white"/>
<path d="M10.6993 103.875H0V114.574H10.6993V103.875Z" fill="white"/>
<path d="M21.086 103.875H10.3867V114.575H21.086V103.875Z" fill="white"/>
<path d="M52.2383 103.875H41.5391V114.575H52.2383V103.875Z" fill="white"/>
<path d="M73.0157 103.875H62.3164V114.575H73.0157V103.875Z" fill="white"/>
<path d="M83.4141 103.875H72.7148V114.575H83.4141V103.875Z" fill="white"/>
<path d="M93.8048 103.875H83.1055V114.575H93.8048V103.875Z" fill="white"/>
<path d="M104.184 103.875H93.4844V114.575H104.184V103.875Z" fill="white"/>
<path d="M124.965 103.875H114.266V114.575H124.965V103.875Z" fill="white"/>
<path d="M135.352 103.875H124.652V114.575H135.352V103.875Z" fill="white"/>
<path d="M166.52 103.875H155.82V114.575H166.52V103.875Z" fill="white"/>
<path d="M187.281 103.875H176.582V114.575H187.281V103.875Z" fill="white"/>
<path d="M197.676 103.875H186.977V114.575H197.676V103.875Z" fill="white"/>
<path d="M218.453 103.875H207.754V114.575H218.453V103.875Z" fill="white"/>
<path d="M228.848 103.875H218.148V114.575H228.848V103.875Z" fill="white"/>
<path d="M249.617 103.875H238.918V114.575H249.617V103.875Z" fill="white"/>
<path d="M260 103.875H249.301V114.575H260V103.875Z" fill="white"/>
<path d="M21.086 114.263H10.3867V124.962H21.086V114.263Z" fill="white"/>
<path d="M93.8048 114.263H83.1055V124.962H93.8048V114.263Z" fill="white"/>
<path d="M104.184 114.263H93.4844V124.962H104.184V114.263Z" fill="white"/>
<path d="M114.578 114.263H103.879V124.962H114.578V114.263Z" fill="white"/>
<path d="M124.965 114.263H114.266V124.962H124.965V114.263Z" fill="white"/>
<path d="M156.125 114.263H145.426V124.962H156.125V114.263Z" fill="white"/>
<path d="M176.902 114.263H166.203V124.962H176.902V114.263Z" fill="white"/>
<path d="M187.281 114.263H176.582V124.962H187.281V114.263Z" fill="white"/>
<path d="M197.676 114.263H186.977V124.962H197.676V114.263Z" fill="white"/>
<path d="M260 114.263H249.301V124.962H260V114.263Z" fill="white"/>
<path d="M10.6993 124.65H0V135.349H10.6993V124.65Z" fill="white"/>
<path d="M41.8594 124.65H31.1602V135.35H41.8594V124.65Z" fill="white"/>
<path d="M52.2383 124.65H41.5391V135.349H52.2383V124.65Z" fill="white"/>
<path d="M73.0157 124.65H62.3164V135.349H73.0157V124.65Z" fill="white"/>
<path d="M83.4141 124.65H72.7148V135.35H83.4141V124.65Z" fill="white"/>
<path d="M93.8048 124.65H83.1055V135.35H93.8048V124.65Z" fill="white"/>
<path d="M104.184 124.65H93.4844V135.35H104.184V124.65Z" fill="white"/>
<path d="M124.965 124.65H114.266V135.35H124.965V124.65Z" fill="white"/>
<path d="M187.281 124.65H176.582V135.35H187.281V124.65Z" fill="white"/>
<path d="M197.676 124.65H186.977V135.349H197.676V124.65Z" fill="white"/>
<path d="M218.453 124.65H207.754V135.35H218.453V124.65Z" fill="white"/>
<path d="M239.223 124.65H228.523V135.35H239.223V124.65Z" fill="white"/>
<path d="M249.617 124.65H238.918V135.35H249.617V124.65Z" fill="white"/>
<path d="M260 124.65H249.301V135.35H260V124.65Z" fill="white"/>
<path d="M10.6993 135.038H0V145.737H10.6993V135.038Z" fill="white"/>
<path d="M31.4688 135.038H20.7695V145.737H31.4688V135.038Z" fill="white"/>
<path d="M52.2383 135.038H41.5391V145.737H52.2383V135.038Z" fill="white"/>
<path d="M114.578 135.038H103.879V145.737H114.578V135.038Z" fill="white"/>
<path d="M135.352 135.038H124.652V145.737H135.352V135.038Z" fill="white"/>
<path d="M145.738 135.038H135.039V145.737H145.738V135.038Z" fill="white"/>
<path d="M156.125 135.038H145.426V145.737H156.125V135.038Z" fill="white"/>
<path d="M208.066 135.038H197.367V145.737H208.066V135.038Z" fill="white"/>
<path d="M228.848 135.038H218.148V145.737H228.848V135.038Z" fill="white"/>
<path d="M249.617 135.038H238.918V145.737H249.617V135.038Z" fill="white"/>
<path d="M10.6993 145.425H0V156.125H10.6993V145.425Z" fill="white"/>
<path d="M31.4688 145.425H20.7695V156.125H31.4688V145.425Z" fill="white"/>
<path d="M62.629 145.425H51.9297V156.125H62.629V145.425Z" fill="white"/>
<path d="M73.0157 145.425H62.3164V156.125H73.0157V145.425Z" fill="white"/>
<path d="M93.8048 145.425H83.1055V156.125H93.8048V145.425Z" fill="white"/>
<path d="M114.578 145.425H103.879V156.125H114.578V145.425Z" fill="white"/>
<path d="M145.738 145.425H135.039V156.125H145.738V145.425Z" fill="white"/>
<path d="M156.125 145.425H145.426V156.125H156.125V145.425Z" fill="white"/>
<path d="M166.52 145.425H155.82V156.125H166.52V145.425Z" fill="white"/>
<path d="M187.281 145.425H176.582V156.125H187.281V145.425Z" fill="white"/>
<path d="M208.066 145.425H197.367V156.125H208.066V145.425Z" fill="white"/>
<path d="M218.453 145.425H207.754V156.125H218.453V145.425Z" fill="white"/>
<path d="M228.848 145.425H218.148V156.125H228.848V145.425Z" fill="white"/>
<path d="M249.617 145.425H238.918V156.125H249.617V145.425Z" fill="white"/>
<path d="M260 145.425H249.301V156.125H260V145.425Z" fill="white"/>
<path d="M10.6993 155.813H0V166.512H10.6993V155.813Z" fill="white"/>
<path d="M41.8594 155.813H31.1602V166.512H41.8594V155.813Z" fill="white"/>
<path d="M62.629 155.813H51.9297V166.512H62.629V155.813Z" fill="white"/>
<path d="M83.4141 155.813H72.7148V166.512H83.4141V155.813Z" fill="white"/>
<path d="M93.8048 155.813H83.1055V166.512H93.8048V155.813Z" fill="white"/>
<path d="M114.578 155.813H103.879V166.512H114.578V155.813Z" fill="white"/>
<path d="M135.352 155.813H124.652V166.512H135.352V155.813Z" fill="white"/>
<path d="M145.738 155.813H135.039V166.512H145.738V155.813Z" fill="white"/>
<path d="M166.52 155.813H155.82V166.512H166.52V155.813Z" fill="white"/>
<path d="M176.902 155.813H166.203V166.512H176.902V155.813Z" fill="white"/>
<path d="M197.676 155.813H186.977V166.512H197.676V155.813Z" fill="white"/>
<path d="M208.066 155.813H197.367V166.512H208.066V155.813Z" fill="white"/>
<path d="M218.453 155.813H207.754V166.512H218.453V155.813Z" fill="white"/>
<path d="M260 155.813H249.301V166.512H260V155.813Z" fill="white"/>
<path d="M10.6993 166.2H0V176.9H10.6993V166.2Z" fill="white"/>
<path d="M31.4688 166.2H20.7695V176.9H31.4688V166.2Z" fill="white"/>
<path d="M41.8594 166.2H31.1602V176.9H41.8594V166.2Z" fill="white"/>
<path d="M52.2383 166.2H41.5391V176.9H52.2383V166.2Z" fill="white"/>
<path d="M62.629 166.2H51.9297V176.9H62.629V166.2Z" fill="white"/>
<path d="M73.0157 166.2H62.3164V176.9H73.0157V166.2Z" fill="white"/>
<path d="M83.4141 166.2H72.7148V176.9H83.4141V166.2Z" fill="white"/>
<path d="M135.352 166.2H124.652V176.9H135.352V166.2Z" fill="white"/>
<path d="M156.125 166.2H145.426V176.9H156.125V166.2Z" fill="white"/>
<path d="M166.52 166.2H155.82V176.9H166.52V166.2Z" fill="white"/>
<path d="M176.902 166.2H166.203V176.9H176.902V166.2Z" fill="white"/>
<path d="M187.281 166.2H176.582V176.9H187.281V166.2Z" fill="white"/>
<path d="M197.676 166.2H186.977V176.9H197.676V166.2Z" fill="white"/>
<path d="M208.066 166.2H197.367V176.9H208.066V166.2Z" fill="white"/>
<path d="M218.453 166.2H207.754V176.9H218.453V166.2Z" fill="white"/>
<path d="M239.223 166.2H228.523V176.9H239.223V166.2Z" fill="white"/>
<path d="M93.8048 176.588H83.1055V187.287H93.8048V176.588Z" fill="white"/>
<path d="M176.902 176.588H166.203V187.287H176.902V176.588Z" fill="white"/>
<path d="M218.453 176.588H207.754V187.287H218.453V176.588Z" fill="white"/>
<path d="M228.848 176.588H218.148V187.287H228.848V176.588Z" fill="white"/>
<path d="M93.8048 186.976H83.1055V197.675H93.8048V186.976Z" fill="white"/>
<path d="M114.578 186.976H103.879V197.675H114.578V186.976Z" fill="white"/>
<path d="M124.965 186.976H114.266V197.675H124.965V186.976Z" fill="white"/>
<path d="M135.352 186.976H124.652V197.675H135.352V186.976Z" fill="white"/>
<path d="M176.902 186.976H166.203V197.675H176.902V186.976Z" fill="white"/>
<path d="M197.676 186.976H186.977V197.675H197.676V186.976Z" fill="white"/>
<path d="M218.453 186.976H207.754V197.675H218.453V186.976Z" fill="white"/>
<path d="M239.223 186.976H228.523V197.675H239.223V186.976Z" fill="white"/>
<path d="M249.617 186.976H238.918V197.675H249.617V186.976Z" fill="white"/>
<path d="M260 186.976H249.301V197.675H260V186.976Z" fill="white"/>
<path d="M124.965 197.363H114.266V208.062H124.965V197.363Z" fill="white"/>
<path d="M156.125 197.363H145.426V208.062H156.125V197.363Z" fill="white"/>
<path d="M176.902 197.363H166.203V208.062H176.902V197.363Z" fill="white"/>
<path d="M218.453 197.363H207.754V208.062H218.453V197.363Z" fill="white"/>
<path d="M228.848 197.363H218.148V208.062H228.848V197.363Z" fill="white"/>
<path d="M93.8048 207.751H83.1055V218.45H93.8048V207.751Z" fill="white"/>
<path d="M114.578 207.751H103.879V218.45H114.578V207.751Z" fill="white"/>
<path d="M124.965 207.751H114.266V218.45H124.965V207.751Z" fill="white"/>
<path d="M166.52 207.751H155.82V218.45H166.52V207.751Z" fill="white"/>
<path d="M176.902 207.751H166.203V218.45H176.902V207.751Z" fill="white"/>
<path d="M187.281 207.751H176.582V218.45H187.281V207.751Z" fill="white"/>
<path d="M197.676 207.751H186.977V218.45H197.676V207.751Z" fill="white"/>
<path d="M208.066 207.751H197.367V218.45H208.066V207.751Z" fill="white"/>
<path d="M218.453 207.751H207.754V218.45H218.453V207.751Z" fill="white"/>
<path d="M239.223 207.751H228.523V218.45H239.223V207.751Z" fill="white"/>
<path d="M260 207.751H249.301V218.45H260V207.751Z" fill="white"/>
<path d="M93.8048 218.138H83.1055V228.837H93.8048V218.138Z" fill="white"/>
<path d="M135.352 218.138H124.652V228.837H135.352V218.138Z" fill="white"/>
<path d="M145.738 218.138H135.039V228.837H145.738V218.138Z" fill="white"/>
<path d="M156.125 218.138H145.426V228.837H156.125V218.138Z" fill="white"/>
<path d="M166.52 218.138H155.82V228.837H166.52V218.138Z" fill="white"/>
<path d="M176.902 218.138H166.203V228.837H176.902V218.138Z" fill="white"/>
<path d="M187.281 218.138H176.582V228.837H187.281V218.138Z" fill="white"/>
<path d="M197.676 218.138H186.977V228.837H197.676V218.138Z" fill="white"/>
<path d="M218.453 218.138H207.754V228.837H218.453V218.138Z" fill="white"/>
<path d="M228.848 218.138H218.148V228.837H228.848V218.138Z" fill="white"/>
<path d="M239.223 218.138H228.523V228.837H239.223V218.138Z" fill="white"/>
<path d="M249.617 218.138H238.918V228.837H249.617V218.138Z" fill="white"/>
<path d="M260 218.138H249.301V228.837H260V218.138Z" fill="white"/>
<path d="M93.8048 228.526H83.1055V239.225H93.8048V228.526Z" fill="white"/>
<path d="M114.578 228.526H103.879V239.225H114.578V228.526Z" fill="white"/>
<path d="M145.738 228.526H135.039V239.225H145.738V228.526Z" fill="white"/>
<path d="M156.125 228.526H145.426V239.225H156.125V228.526Z" fill="white"/>
<path d="M176.902 228.526H166.203V239.225H176.902V228.526Z" fill="white"/>
<path d="M228.848 228.526H218.148V239.225H228.848V228.526Z" fill="white"/>
<path d="M239.223 228.526H228.523V239.225H239.223V228.526Z" fill="white"/>
<path d="M260 228.526H249.301V239.225H260V228.526Z" fill="white"/>
<path d="M93.8048 238.913H83.1055V249.612H93.8048V238.913Z" fill="white"/>
<path d="M104.184 238.913H93.4844V249.612H104.184V238.913Z" fill="white"/>
<path d="M114.578 238.913H103.879V249.612H114.578V238.913Z" fill="white"/>
<path d="M135.352 238.913H124.652V249.612H135.352V238.913Z" fill="white"/>
<path d="M145.738 238.913H135.039V249.612H145.738V238.913Z" fill="white"/>
<path d="M166.52 238.913H155.82V249.612H166.52V238.913Z" fill="white"/>
<path d="M176.902 238.913H166.203V249.612H176.902V238.913Z" fill="white"/>
<path d="M208.066 238.913H197.367V249.612H208.066V238.913Z" fill="white"/>
<path d="M218.453 238.913H207.754V249.612H218.453V238.913Z" fill="white"/>
<path d="M228.848 238.913H218.148V249.612H228.848V238.913Z" fill="white"/>
<path d="M260 238.913H249.301V249.612H260V238.913Z" fill="white"/>
<path d="M93.8048 249.301H83.1055V260H93.8048V249.301Z" fill="white"/>
<path d="M104.184 249.301H93.4844V260H104.184V249.301Z" fill="white"/>
<path d="M114.578 249.301H103.879V260H114.578V249.301Z" fill="white"/>
<path d="M135.352 249.301H124.652V260H135.352V249.301Z" fill="white"/>
<path d="M156.125 249.301H145.426V260H156.125V249.301Z" fill="white"/>
<path d="M187.281 249.301H176.582V260H187.281V249.301Z" fill="white"/>
<path d="M197.676 249.301H186.977V260H197.676V249.301Z" fill="white"/>
<path d="M208.066 249.301H197.367V260H208.066V249.301Z" fill="white"/>
<path d="M218.453 249.301H207.754V260H218.453V249.301Z" fill="white"/>
<path d="M228.848 249.301H218.148V260H228.848V249.301Z" fill="white"/>
<path d="M239.223 249.301H228.523V260H239.223V249.301Z" fill="white"/>
<path d="M249.617 249.301H238.918V260H249.617V249.301Z" fill="white"/>
<path d="M260 249.301H249.301V260H250C255.523 260 260 255.523 260 250V249.301Z" fill="white"/>
<path d="M72.7136 0H22.8528C10.3877 0 0 10.3875 0 22.8526V72.7127H72.7136V0ZM10.3877 62.3252V24.9301C10.3877 17.1394 17.1396 10.3875 24.9304 10.3875H62.3259V62.3252H10.3877Z" fill="white"/>
<path d="M259.699 72.7127V22.8526C259.699 10.3875 249.312 0 236.846 0L186.986 0V72.7127H259.699ZM197.373 10.3875L234.769 10.3875C242.56 10.3875 249.312 17.1394 249.312 24.9301V62.3252L197.373 62.3252V10.3875Z" fill="white"/>
<path d="M0 186.976L0 236.836C0 249.301 10.3877 259.688 22.8528 259.688H72.7136V186.976H0ZM62.3259 249.301H24.9304C17.1396 249.301 10.3877 242.549 10.3877 234.758V197.363H62.3259V249.301Z" fill="white"/>
<path d="M51.9325 20.775H20.7695V51.9376H51.9325V20.775Z" fill="white"/>
<path d="M238.917 20.7751H207.754V51.9377H238.917V20.7751Z" fill="white"/>
<path d="M51.9325 207.751H20.7695V238.913H51.9325V207.751Z" fill="white"/>
</svg>
