<svg width="52" height="52" viewBox="0 0 52 52" fill="none" xmlns="http://www.w3.org/2000/svg">
<path fill-rule="evenodd" clip-rule="evenodd" d="M6.46606 6.30298C6.46606 5.39429 7.03309 4.58214 7.88613 4.26901C11.4466 2.96209 14.3717 2.36373 17.3656 2.42112C20.3256 2.47787 23.2065 3.17501 26.6377 4.2324C30.0102 5.27169 32.4133 5.88072 34.7457 5.95552C37.0188 6.02841 39.3639 5.59451 42.5489 4.29653C43.217 4.02427 43.9768 4.10239 44.5755 4.50491C45.1742 4.90743 45.5332 5.58154 45.5332 6.30298V30.1363C45.5332 31.0172 45 31.8104 44.1843 32.1428C40.5873 33.6087 37.6309 34.217 34.6068 34.12C31.6423 34.0249 28.7529 33.252 25.3616 32.2069C22.029 31.1799 19.6189 30.6318 17.2826 30.587C15.3316 30.5496 13.3275 30.8626 10.7994 31.6791L10.7994 47.6666C10.7994 48.8633 9.82935 49.8333 8.63273 49.8333C7.43612 49.8333 6.46606 48.8633 6.46606 47.6666V6.30298ZM17.3656 26.2545C15.2273 26.2135 13.1241 26.507 10.7994 27.1543V7.84575C13.3275 7.02923 15.3316 6.71626 17.2826 6.75366C19.6189 6.79845 22.029 7.34657 25.3616 8.37356C28.7529 9.41866 31.6423 10.1916 34.6068 10.2866C36.7541 10.3555 38.8673 10.0688 41.1999 9.37189V28.6461C38.6779 29.5442 36.6855 29.8511 34.7457 29.7889C32.4133 29.7141 30.0102 29.105 26.6377 28.0658C23.2065 27.0084 20.3256 26.3112 17.3656 26.2545Z" fill="#2861CF"/>
</svg>
