<svg width="24" height="25" viewBox="0 0 24 25" fill="none" xmlns="http://www.w3.org/2000/svg">
<g clip-path="url(#clip0_645_3662)">
<path fill-rule="evenodd" clip-rule="evenodd" d="M12 6.5C9.79086 6.5 8 8.29086 8 10.5C8 12.7091 9.79086 14.5 12 14.5C14.2091 14.5 16 12.7091 16 10.5C16 8.29086 14.2091 6.5 12 6.5ZM10 10.5C10 9.39543 10.8954 8.5 12 8.5C13.1046 8.5 14 9.39543 14 10.5C14 11.6046 13.1046 12.5 12 12.5C10.8954 12.5 10 11.6046 10 10.5Z" />
<path fill-rule="evenodd" clip-rule="evenodd" d="M11.4448 24.3317C11.445 24.3319 11.4453 24.3321 12 23.5L11.4448 24.3317C11.7807 24.5556 12.2188 24.556 12.5547 24.3321L12 23.5C12.5547 24.3321 12.5544 24.3322 12.5547 24.3321L12.5581 24.3298L12.5648 24.3253L12.5877 24.3098C12.6072 24.2966 12.6349 24.2776 12.6704 24.253C12.7415 24.2038 12.8435 24.1321 12.9722 24.0392C13.2295 23.8534 13.5936 23.5822 14.0292 23.2354C14.8987 22.543 16.0606 21.5428 17.226 20.3127C19.5157 17.8958 22 14.4019 22 10.5C22 7.84784 20.9464 5.3043 19.0711 3.42893C17.1957 1.55357 14.6522 0.5 12 0.5C9.34784 0.5 6.8043 1.55357 4.92893 3.42893C3.05357 5.3043 2 7.84784 2 10.5C2 14.4019 4.48426 17.8958 6.77405 20.3127C7.93939 21.5428 9.10133 22.543 9.97082 23.2354C10.4064 23.5822 10.7705 23.8534 11.0278 24.0392C11.1565 24.1321 11.2585 24.2038 11.3296 24.253C11.3651 24.2776 11.3928 24.2966 11.4123 24.3098L11.4352 24.3253L11.4419 24.3298L11.4448 24.3317ZM6.34315 4.84315C7.84344 3.34285 9.87827 2.5 12 2.5C14.1217 2.5 16.1566 3.34285 17.6569 4.84315C19.1571 6.34344 20 8.37827 20 10.5C20 13.5981 17.9843 16.6042 15.774 18.9373C14.6894 20.0822 13.6013 21.0195 12.7833 21.6708C12.4789 21.9133 12.213 22.1152 12 22.2726C11.787 22.1152 11.5211 21.9133 11.2167 21.6708C10.3987 21.0195 9.31061 20.0822 8.22595 18.9373C6.01574 16.6042 4 13.5981 4 10.5C4 8.37827 4.84285 6.34344 6.34315 4.84315Z" />
</g>
<defs>
<clipPath id="clip0_645_3662">
<rect width="24" height="24" fill="white" transform="translate(0 0.5)"/>
</clipPath>
</defs>
</svg>
