<svg width="24" height="25" viewBox="0 0 24 25" fill="none" xmlns="http://www.w3.org/2000/svg">
<path d="M13 6.5C13 5.94772 12.5523 5.5 12 5.5C11.4477 5.5 11 5.94772 11 6.5V12.5C11 12.8788 11.214 13.225 11.5528 13.3944L15.5528 15.3944C16.0468 15.6414 16.6474 15.4412 16.8944 14.9472C17.1414 14.4532 16.9412 13.8526 16.4472 13.6056L13 11.882V6.5Z" fill="#2861CF"/>
<path fill-rule="evenodd" clip-rule="evenodd" d="M12 1.5C5.92487 1.5 1 6.42487 1 12.5C1 18.5751 5.92487 23.5 12 23.5C18.0751 23.5 23 18.5751 23 12.5C23 6.42487 18.0751 1.5 12 1.5ZM3 12.5C3 7.52944 7.02944 3.5 12 3.5C16.9706 3.5 21 7.52944 21 12.5C21 17.4706 16.9706 21.5 12 21.5C7.02944 21.5 3 17.4706 3 12.5Z" fill="#2861CF"/>
</svg>
