<svg width="32" height="32" viewBox="0 0 32 32" fill="none" xmlns="http://www.w3.org/2000/svg">
<path d="M16.0004 10.8213C14.6804 10.8213 13.5937 11.9053 13.5937 13.224C13.5937 13.7826 13.7964 14.2906 14.1204 14.7013C13.3286 15.0476 12.6479 15.6058 12.1533 16.3145C11.6588 17.0232 11.3696 17.8547 11.3177 18.7173L11.2764 19.4226H20.7244L20.683 18.716C20.6311 17.8537 20.3419 17.0225 19.8473 16.3143C19.3527 15.6061 18.672 15.0483 17.8804 14.7026C18.2044 14.2946 18.407 13.7826 18.407 13.224C18.407 11.904 17.3204 10.8213 16.0004 10.8213ZM16.0004 12.1573C16.6004 12.1573 17.071 12.6266 17.071 13.224C17.0726 13.3651 17.0461 13.5052 16.9929 13.636C16.9396 13.7667 16.8609 13.8856 16.7612 13.9855C16.6615 14.0855 16.5428 14.1646 16.4122 14.2181C16.2815 14.2716 16.1415 14.2985 16.0004 14.2973C15.4004 14.2973 14.9297 13.8226 14.9297 13.224C14.9297 12.6253 15.4004 12.1573 16.0004 12.1573ZM19.1737 18.0893H12.8244C13.2217 16.684 14.451 15.6453 15.9937 15.6386C17.5364 15.6306 18.775 16.6733 19.1764 18.0893H19.1737Z" fill="#2861CF"/>
<path d="M16.0001 1.91199C15.4234 1.91444 14.871 2.14463 14.4632 2.55243C14.0554 2.96023 13.8252 3.51261 13.8228 4.08932C13.8228 5.04932 14.4628 5.86265 15.3334 6.14665V7.71999C13.624 7.86209 12.0063 8.55286 10.7214 9.68932L8.38278 7.35199C8.6817 6.86527 8.84127 6.30583 8.84411 5.73465C8.84411 3.99865 7.42011 2.57865 5.68411 2.57865C3.94811 2.57865 2.52944 3.99865 2.52944 5.73465C2.53155 6.57163 2.86479 7.37376 3.45637 7.96584C4.04796 8.55792 4.8498 8.89184 5.68678 8.89465C6.34944 8.89465 6.96544 8.68132 7.47478 8.32799L9.79478 10.648C8.71391 11.9778 8.09145 13.6211 8.02011 15.3333H6.14544C6.0049 14.8973 5.73041 14.5167 5.36104 14.2457C4.99166 13.9747 4.54622 13.8271 4.08811 13.824C2.89478 13.824 1.91211 14.8067 1.91211 16C1.91211 17.1933 2.89478 18.1773 4.08811 18.1773C5.04811 18.1773 5.86144 17.5373 6.14544 16.6667H8.06811C8.26906 18.2952 8.96855 19.8218 10.0708 21.0373L7.57744 23.5293C7.05321 23.1626 6.42921 22.9653 5.78944 22.964C4.05344 22.964 2.63344 24.3867 2.63344 26.124C2.63344 27.8613 4.05344 29.2787 5.78944 29.2787C7.52544 29.2787 8.94811 27.8587 8.94811 26.1227C8.94811 25.5307 8.77478 24.9813 8.48678 24.5053L11.0388 21.9533C12.2704 22.933 13.765 23.5252 15.3334 23.6547V25.8547C14.8972 25.995 14.5163 26.2694 14.245 26.6388C13.9738 27.0081 13.826 27.4537 13.8228 27.912C13.8252 28.4887 14.0554 29.0411 14.4632 29.4489C14.871 29.8567 15.4234 30.0869 16.0001 30.0893C16.5768 30.0869 17.1292 29.8567 17.537 29.4489C17.9448 29.0411 18.175 28.4887 18.1774 27.912C18.1774 26.952 17.5374 26.1387 16.6668 25.8547V23.6547C18.2264 23.525 19.713 22.9378 20.9401 21.9667L23.4788 24.5053C23.1803 24.9922 23.0212 25.5516 23.0188 26.1227C23.0219 26.9592 23.3558 27.7605 23.9476 28.3517C24.5393 28.943 25.3409 29.2762 26.1774 29.2787C27.9134 29.2787 29.3334 27.8587 29.3334 26.1227C29.3334 24.3867 27.9134 22.964 26.1774 22.964C25.5134 22.964 24.8974 23.1747 24.3881 23.5293L21.9148 21.0547C23.0252 19.8366 23.7301 18.3038 23.9321 16.668H25.8548C25.9955 17.1039 26.27 17.4844 26.6394 17.7553C27.0087 18.0263 27.4541 18.174 27.9121 18.1773C29.1054 18.1773 30.0881 17.1947 30.0881 16C30.0881 14.8053 29.1054 13.824 27.9121 13.824C26.9521 13.824 26.1388 14.464 25.8548 15.3333H23.9814C23.9088 13.5873 23.2637 11.9136 22.1454 10.5707L24.3881 8.32799C24.8988 8.68265 25.5134 8.89332 26.1774 8.89332C27.014 8.89016 27.8153 8.55627 28.4065 7.96451C28.9978 7.37276 29.331 6.57117 29.3334 5.73465C29.331 4.89839 28.9977 4.09708 28.4064 3.50574C27.815 2.91441 27.0137 2.58112 26.1774 2.57865C25.3407 2.58076 24.5388 2.91382 23.9467 3.50511C23.3547 4.09641 23.0206 4.89791 23.0174 5.73465C23.0174 6.32665 23.1921 6.87732 23.4788 7.35199L21.2054 9.62665C19.9321 8.52765 18.3431 7.86059 16.6668 7.72132V6.14665C17.1031 6.00635 17.4839 5.73195 17.7552 5.36256C18.0264 4.99316 18.1742 4.5476 18.1774 4.08932C18.175 3.51261 17.9448 2.96023 17.537 2.55243C17.1292 2.14463 16.5768 1.91444 16.0001 1.91199ZM16.0001 3.24532C16.4734 3.24532 16.8441 3.61599 16.8441 4.08932C16.8441 4.56265 16.4734 4.92932 16.0001 4.92932C15.5268 4.92932 15.1561 4.56265 15.1561 4.08932C15.1561 3.61599 15.5268 3.24532 16.0001 3.24532ZM5.68544 3.91199C6.70011 3.91199 7.51078 4.71999 7.51078 5.73465C7.51078 6.74932 6.70011 7.56132 5.68411 7.56132C4.66811 7.56132 3.86144 6.74932 3.86144 5.73465C3.8602 5.49484 3.90655 5.25716 3.99779 5.03538C4.08903 4.8136 4.22336 4.61211 4.393 4.4426C4.56264 4.27309 4.76422 4.1389 4.98607 4.04782C5.20792 3.95674 5.44563 3.91057 5.68544 3.91199ZM26.1774 3.91199C26.4171 3.91075 26.6547 3.95705 26.8764 4.04821C27.0981 4.13937 27.2995 4.27358 27.469 4.44308C27.6385 4.61257 27.7727 4.81399 27.8639 5.03569C27.955 5.25738 28.0013 5.49495 28.0001 5.73465C28.0001 6.74932 27.1921 7.56132 26.1774 7.56132C25.1628 7.56132 24.3508 6.74932 24.3508 5.73465C24.3508 4.71999 25.1628 3.91199 26.1774 3.91199ZM16.0001 9.02132C17.6534 9.02132 19.1441 9.64132 20.3068 10.6333L21.0548 11.38C22.0908 12.5771 22.6628 14.1062 22.6668 15.6893C22.6668 19.3787 19.6894 22.356 16.0001 22.356C12.3108 22.356 9.33344 19.3787 9.33344 15.6893C9.33344 12 12.3108 9.02265 16.0001 9.02265V9.02132ZM4.08811 15.1573C4.56278 15.1573 4.92944 15.5267 4.92944 16C4.92944 16.4733 4.56278 16.844 4.08944 16.844C3.61478 16.844 3.24544 16.4747 3.24544 16C3.24544 15.5253 3.61478 15.1573 4.08811 15.1573ZM27.9121 15.1573C28.3854 15.1573 28.7548 15.5267 28.7548 16C28.7548 16.4733 28.3854 16.844 27.9121 16.844C27.4374 16.844 27.0708 16.4747 27.0708 16C27.0708 15.5253 27.4388 15.1573 27.9121 15.1573ZM5.78944 24.2973C6.80411 24.2973 7.61478 25.108 7.61478 26.124C7.61478 27.1373 6.80411 27.9453 5.78811 27.9453C4.77211 27.9453 3.96678 27.1373 3.96678 26.1227C3.96678 25.108 4.77478 24.2973 5.78944 24.2973ZM26.1761 24.2973C27.1921 24.2973 28.0001 25.108 28.0001 26.124C28.0001 27.14 27.1921 27.9453 26.1774 27.9453C25.1628 27.9453 24.3508 27.1373 24.3508 26.1227C24.3508 25.108 25.1614 24.2973 26.1761 24.2973ZM16.0001 27.0707C16.4734 27.0707 16.8441 27.4387 16.8441 27.912C16.8454 28.0232 16.8244 28.1335 16.7824 28.2364C16.7404 28.3394 16.6783 28.4329 16.5997 28.5116C16.5211 28.5902 16.4275 28.6523 16.3246 28.6943C16.2216 28.7363 16.1113 28.7572 16.0001 28.756C15.8889 28.7572 15.7786 28.7363 15.6757 28.6943C15.5727 28.6523 15.4791 28.5902 15.4005 28.5116C15.3219 28.4329 15.2598 28.3394 15.2178 28.2364C15.1758 28.1335 15.1549 28.0232 15.1561 27.912C15.1561 27.4387 15.5268 27.072 16.0001 27.072V27.0707Z" fill="#2861CF"/>
</svg>
