<svg width="11" height="13" viewBox="0 0 11 13" fill="none" xmlns="http://www.w3.org/2000/svg">
<path d="M11 8.7879L10.158 10.2948L7.13029 8.4755C6.91531 8.34073 6.71824 8.20597 6.53909 8.07121C6.35993 7.9242 6.20467 7.75268 6.07329 7.55666C6.25244 7.98545 6.34202 8.44487 6.34202 8.93492V12.5H4.64006V8.95329C4.64006 8.70827 4.65201 8.48162 4.6759 8.27335C4.71173 8.05283 4.77742 7.83844 4.87296 7.63017C4.74158 7.80169 4.59229 7.95483 4.42508 8.08959C4.25787 8.22435 4.07275 8.35299 3.86971 8.4755L0.859935 10.2764L0.0179152 8.76953L3.02769 6.96861C3.24267 6.8461 3.45168 6.74809 3.65472 6.67458C3.85776 6.58882 4.07275 6.53369 4.29967 6.50919C3.84582 6.44793 3.42182 6.28867 3.02769 6.03139L0 4.2121L0.842019 2.70521L3.86971 4.5245C4.08469 4.65927 4.27579 4.80015 4.443 4.94717C4.62215 5.09418 4.77742 5.2657 4.90879 5.46172C4.81325 5.25345 4.74158 5.03293 4.69381 4.80015C4.65798 4.56738 4.64006 4.32848 4.64006 4.08346V0.5H6.34202V4.04671C6.34202 4.29173 6.3241 4.53063 6.28827 4.7634C6.26439 4.98392 6.21064 5.19832 6.12704 5.40658C6.25841 5.22282 6.40771 5.06355 6.57492 4.92879C6.74213 4.79403 6.92725 4.65927 7.13029 4.5245L10.1401 2.74196L10.9821 4.24885L7.97231 6.03139C7.76927 6.1539 7.56623 6.25804 7.36319 6.3438C7.17209 6.42956 6.96906 6.48469 6.75407 6.50919C7.16015 6.55819 7.56623 6.71133 7.97231 6.96861L11 8.7879Z" fill="#2861CF"/>
</svg>
