<svg width="26" height="26" viewBox="0 0 26 26" fill="none" xmlns="http://www.w3.org/2000/svg">
<path d="M4.22617 12.4035C4.22617 12.4035 13.0717 8.67172 16.1395 7.35766C17.3155 6.83208 21.3036 5.15007 21.3036 5.15007C21.3036 5.15007 23.1443 4.41425 22.9909 6.2013C22.9398 6.93719 22.5307 9.51265 22.1217 12.2984C21.5081 16.2405 20.8434 20.5505 20.8434 20.5505C20.8434 20.5505 20.7412 21.7595 19.872 21.9697C19.0028 22.18 17.5711 21.2339 17.3155 21.0236C17.1109 20.866 13.4807 18.5007 12.1513 17.3443C11.7934 17.029 11.3844 16.3983 12.2024 15.6624C14.0431 13.9278 16.2417 11.7728 17.5711 10.4063C18.1847 9.77548 18.7982 8.30378 16.2417 10.0908C12.6115 12.6664 9.0324 15.0842 9.0324 15.0842C9.0324 15.0842 8.21429 15.6098 6.68041 15.1367C5.14645 14.6637 3.3569 14.033 3.3569 14.033C3.3569 14.033 2.12985 13.2445 4.22617 12.4035Z"/>
</svg>
