<svg width="26" height="26" viewBox="0 0 26 26" fill="none" xmlns="http://www.w3.org/2000/svg">
<path fill-rule="evenodd" clip-rule="evenodd" d="M17.1369 15.0434C16.9024 14.8547 16.6279 14.722 16.3341 14.6552C16.0404 14.5884 15.7353 14.5893 15.442 14.6579C15.0014 14.8405 14.7167 15.5302 14.4319 15.8751C14.3719 15.9578 14.2837 16.0158 14.1838 16.0382C14.084 16.0606 13.9793 16.0459 13.8896 15.9968C12.2763 15.3666 10.9241 14.2108 10.0525 12.7172C9.97816 12.624 9.94297 12.5057 9.95435 12.3871C9.96573 12.2685 10.0228 12.159 10.1135 12.0816C10.4311 11.768 10.6642 11.3796 10.7914 10.9523C10.8197 10.481 10.7114 10.0115 10.4796 9.5999C10.3004 9.0228 9.95926 8.50893 9.49659 8.11901C9.25796 8.01195 8.99337 7.97606 8.73474 8.01566C8.47612 8.05525 8.2345 8.16864 8.03904 8.34216C7.69971 8.63417 7.43038 8.99839 7.25087 9.40798C7.07136 9.81758 6.98625 10.2621 7.00181 10.7089C7.00285 10.9598 7.03473 11.2096 7.09672 11.4527C7.25414 12.0369 7.49623 12.595 7.81532 13.1094C8.04555 13.5035 8.29674 13.8849 8.56783 14.2522C9.44883 15.4585 10.5563 16.4828 11.8287 17.2681C12.4672 17.6671 13.1496 17.9916 13.8625 18.2351C14.603 18.5699 15.4206 18.6984 16.2284 18.607C16.6887 18.5375 17.1249 18.3562 17.4984 18.0791C17.872 17.802 18.1715 17.4376 18.3707 17.0179C18.4877 16.7644 18.5233 16.4809 18.4724 16.2064C18.3504 15.6452 17.5979 15.3138 17.1369 15.0434Z"/>
<path d="M1 25L2.72195 18.6031C1.33324 16.1112 0.892034 13.2033 1.47929 10.4131C2.06655 7.62288 3.64287 5.13748 5.91901 3.41298C8.19515 1.68848 11.0184 0.840545 13.8708 1.02477C16.7231 1.209 19.4131 2.41304 21.4473 4.41594C23.4815 6.41883 24.7233 9.08625 24.9449 11.9287C25.1665 14.7712 24.353 17.598 22.6537 19.8904C20.9544 22.1829 18.4832 23.7873 15.6937 24.4091C12.9042 25.0309 9.9835 24.6285 7.46746 23.2757L1 25ZM7.77931 20.8819L8.17929 21.1186C10.0017 22.196 12.1303 22.6419 14.2333 22.3867C16.3362 22.1315 18.2955 21.1896 19.8058 19.7077C21.3161 18.2258 22.2925 16.2873 22.5828 14.1941C22.8732 12.101 22.4613 9.97077 21.4112 8.13553C20.3611 6.30028 18.7318 4.86306 16.7774 4.04784C14.8229 3.23262 12.6529 3.0852 10.6056 3.62854C8.55837 4.17188 6.7488 5.37546 5.45892 7.05173C4.16904 8.728 3.4713 10.7828 3.47445 12.8959C3.47274 14.648 3.95853 16.3662 4.87777 17.8593L5.1286 18.2717L4.16594 21.8421L7.77931 20.8819Z"/>
</svg>
