<svg width="26" height="20" viewBox="0 0 26 20" fill="none" xmlns="http://www.w3.org/2000/svg">
<path d="M25.2642 3.67322C24.9698 2.54222 24.1023 1.6516 23.0008 1.34933C21.0046 0.800003 12.9992 0.800003 12.9992 0.800003C12.9992 0.800003 4.99384 0.800003 2.99747 1.34933C1.89595 1.6516 1.02846 2.54222 0.734055 3.67322C0.199219 5.72304 0.199219 10 0.199219 10C0.199219 10 0.199219 14.2768 0.734055 16.3268C1.02846 17.4578 1.89595 18.3484 2.99747 18.6508C4.99384 19.2 12.9992 19.2 12.9992 19.2C12.9992 19.2 21.0046 19.2 23.0008 18.6508C24.1023 18.3484 24.9698 17.4578 25.2642 16.3268C25.7992 14.2768 25.7992 10 25.7992 10C25.7992 10 25.7992 5.72304 25.2642 3.67322Z" fill="white"/>
<path d="M10.5977 14.4V6.39998L16.9977 10.4001L10.5977 14.4Z"/>
</svg>
