<svg xmlns="http://www.w3.org/2000/svg" xmlns:xlink="http://www.w3.org/1999/xlink" width="0" height="0" style="position:absolute">
	
		<symbol id="cross" viewBox="0 0 20 20">
			<path d="M18.943 2.943a1.333 1.333 0 0 0-1.886-1.886L10 8.114 2.943 1.057a1.333 1.333 0 0 0-1.886 1.886L8.114 10l-7.057 7.057a1.333 1.333 0 1 0 1.886 1.886L10 11.886l7.057 7.057a1.333 1.333 0 1 0 1.886-1.886L11.886 10l7.057-7.057z" fill="#fff"></path>
		</symbol>
	
		<symbol id="icon-chevron-down" viewBox="0 0 20 20">
			<path d="M5.59 6.91a.833.833 0 0 0-1.18 1.18l5 5a.833.833 0 0 0 1.18 0l5-5a.833.833 0 0 0-1.18-1.18L10 11.322l-4.41-4.41z" fill="#1F2839"></path>
		</symbol>
	
		<symbol id="icon-chevron-down_blue" viewBox="0 0 20 20">
			<path d="M5.59 6.91a.833.833 0 0 0-1.18 1.18l5 5a.833.833 0 0 0 1.18 0l5-5a.833.833 0 0 0-1.18-1.18L10 11.322l-4.41-4.41z" fill="#2861CF"></path>
		</symbol>
	
		<symbol id="icon-chevron-right" viewBox="0 0 18 18">
			<path d="M7.28 3.97a.75.75 0 0 0-1.06 1.06L10.19 9l-3.97 3.97a.75.75 0 1 0 1.06 1.06l4.5-4.5a.75.75 0 0 0 0-1.06l-4.5-4.5z" fill="#9EA5B4"></path>
		</symbol>
	
		<symbol id="icon-clock" viewBox="0 0 24 25">
			<path d="M13 6.5a1 1 0 1 0-2 0v6a1 1 0 0 0 .553.894l4 2a1 1 0 1 0 .894-1.788L13 11.882V6.5z" fill="#2861CF"></path><path fill-rule="evenodd" clip-rule="evenodd" d="M12 1.5c-6.075 0-11 4.925-11 11s4.925 11 11 11 11-4.925 11-11-4.925-11-11-11zm-9 11a9 9 0 1 1 18 0 9 9 0 0 1-18 0z" fill="#2861CF"></path>
		</symbol>
	
		<symbol id="icon-download" viewBox="0 0 18 18">
			<path d="M9.75 2.25a.75.75 0 0 0-1.5 0v7.19L5.78 6.97a.75.75 0 0 0-1.06 1.06l3.75 3.75a.75.75 0 0 0 1.06 0l3.75-3.75a.75.75 0 0 0-1.06-1.06L9.75 9.44V2.25z"></path><path d="M2.25 10.5a.75.75 0 0 1 .75.75v3a.75.75 0 0 0 .75.75h10.5a.75.75 0 0 0 .75-.75v-3a.75.75 0 0 1 1.5 0v3a2.25 2.25 0 0 1-2.25 2.25H3.75a2.25 2.25 0 0 1-2.25-2.25v-3a.75.75 0 0 1 .75-.75z"></path>
		</symbol>
	
		<symbol id="icon-eye" viewBox="0 0 20 20">
			<g fill="#2861CF"><path fill-rule="evenodd" clip-rule="evenodd" d="M10 6.667a3.333 3.333 0 1 0 0 6.666 3.333 3.333 0 0 0 0-6.666zM8.333 10a1.667 1.667 0 1 1 3.334 0 1.667 1.667 0 0 1-3.334 0z"></path><path fill-rule="evenodd" clip-rule="evenodd" d="M19.912 9.627l-.745.373.745.373-.002.003-.003.006-.01.018a10.108 10.108 0 0 1-.16.295c-.109.195-.27.47-.482.799a17.23 17.23 0 0 1-1.876 2.41c-1.633 1.74-4.13 3.596-7.38 3.596-3.249 0-5.745-1.855-7.378-3.597a17.233 17.233 0 0 1-2.36-3.208 10.253 10.253 0 0 1-.16-.295l-.009-.018-.003-.006v-.002S.087 10.373.832 10l-.745-.373.001-.003.003-.006.01-.018a6.12 6.12 0 0 1 .16-.295 17.23 17.23 0 0 1 2.36-3.208C4.253 4.355 6.75 2.5 10 2.5s5.746 1.855 7.379 3.597a17.226 17.226 0 0 1 2.36 3.208 10.136 10.136 0 0 1 .159.295l.01.018.002.006.002.003zm-17.767.963c-.15-.232-.27-.433-.361-.59a15.562 15.562 0 0 1 2.053-2.763c1.492-1.592 3.58-3.07 6.163-3.07 2.584 0 4.67 1.478 6.163 3.07A15.56 15.56 0 0 1 18.216 10a15.565 15.565 0 0 1-2.053 2.763c-1.493 1.592-3.58 3.07-6.163 3.07-2.584 0-4.67-1.478-6.163-3.07a15.567 15.567 0 0 1-1.692-2.173z"></path><path d="M19.166 10l.746-.373a.836.836 0 0 1 0 .746L19.167 10zM.088 9.627L.833 10l-.745.373a.835.835 0 0 1 0-.746z"></path></g>
		</symbol>
	
		<symbol id="icon-file-text" viewBox="0 0 30 30">
			<path d="M10 15a1.25 1.25 0 1 0 0 2.5h10a1.25 1.25 0 1 0 0-2.5H10zM8.75 21.25c0-.69.56-1.25 1.25-1.25h10a1.25 1.25 0 1 1 0 2.5H10c-.69 0-1.25-.56-1.25-1.25zM10 10a1.25 1.25 0 1 0 0 2.5h2.5a1.25 1.25 0 1 0 0-2.5H10z"></path><path clip-rule="evenodd" d="M4.848 2.348A3.75 3.75 0 0 1 7.5 1.25h10c.331 0 .65.132.884.366l7.5 7.5c.234.235.366.552.366.884v15a3.75 3.75 0 0 1-3.75 3.75h-15A3.75 3.75 0 0 1 3.75 25V5a3.75 3.75 0 0 1 1.098-2.652zM7.5 3.75A1.25 1.25 0 0 0 6.25 5v20a1.25 1.25 0 0 0 1.25 1.25h15A1.25 1.25 0 0 0 23.75 25V11.25H17.5c-.69 0-1.25-.56-1.25-1.25V3.75H7.5zm11.25 1.768l3.232 3.232H18.75V5.518z"></path>
		</symbol>
	
		<symbol id="icon-home" viewBox="0 0 24 24">
			<path fill-rule="evenodd" clip-rule="evenodd" d="M12.614 1.21a1 1 0 0 0-1.228 0l-9 7A1 1 0 0 0 2 9v11a3 3 0 0 0 3 3h14a3 3 0 0 0 3-3V9a1 1 0 0 0-.386-.79l-9-7zM16 21h3a1 1 0 0 0 1-1V9.49l-8-6.223-8 6.222V20a1 1 0 0 0 1 1h3v-9a1 1 0 0 1 1-1h6a1 1 0 0 1 1 1v9zm-6 0v-8h4v8h-4z"></path>
		</symbol>
	
		<symbol id="icon-mail" viewBox="0 0 20 20">
			<path fill-rule="evenodd" clip-rule="evenodd" d="M.834 4.986V15c0 1.377 1.123 2.5 2.5 2.5h13.333c1.377 0 2.5-1.123 2.5-2.5V5.01v-.025a2.505 2.505 0 0 0-2.5-2.485H3.334a2.505 2.505 0 0 0-2.5 2.486zm1.756-.358a.838.838 0 0 1 .744-.461h13.333c.324 0 .607.189.745.461L10 9.816 2.59 4.628zM17.5 6.601V15a.838.838 0 0 1-.833.833H3.334A.838.838 0 0 1 2.501 15V6.6l7.022 4.916c.287.2.669.2.956 0L17.5 6.601z" fill="#2861CF"></path>
		</symbol>
	
		<symbol id="icon-map-pin" viewBox="0 0 24 25">
			<g clip-path="url(#a)" clip-rule="evenodd"><path d="M12 6.5a4 4 0 1 0 0 8 4 4 0 0 0 0-8zm-2 4a2 2 0 1 1 4 0 2 2 0 0 1-4 0z"></path><path d="M11.445 24.332L12 23.5l-.555.832a1 1 0 0 0 1.11 0L12 23.5l.555.832.003-.002.007-.005.023-.015.082-.057c.072-.05.174-.12.302-.214a31.433 31.433 0 0 0 4.254-3.727C19.516 17.897 22 14.403 22 10.5a10 10 0 0 0-20 0c0 3.902 2.484 7.396 4.774 9.813a31.428 31.428 0 0 0 4.254 3.726 18.887 18.887 0 0 0 .384.27l.023.016.007.005.003.002zM6.343 4.843A8 8 0 0 1 20 10.5c0 3.098-2.016 6.104-4.226 8.437A29.412 29.412 0 0 1 12 22.273a29.419 29.419 0 0 1-3.774-3.335C6.016 16.603 4 13.597 4 10.5a8 8 0 0 1 2.343-5.657z"></path></g><defs><clipPath id="a"><path fill="#fff" transform="translate(0 .5)" d="M0 0h24v24H0z"></path></clipPath></defs>
		</symbol>
	
		<symbol id="icon-phone" viewBox="0 0 20 20">
			<g clip-path="url(#a)"><path d="M18.333 14.1v2.5a1.667 1.667 0 0 1-1.816 1.667 16.492 16.492 0 0 1-7.192-2.559 16.25 16.25 0 0 1-5-5 16.492 16.492 0 0 1-2.558-7.225 1.666 1.666 0 0 1 1.658-1.816h2.5A1.667 1.667 0 0 1 7.592 3.1c.105.8.3 1.586.583 2.342A1.667 1.667 0 0 1 7.8 7.2L6.742 8.258a13.333 13.333 0 0 0 5 5L12.8 12.2a1.667 1.667 0 0 1 1.758-.375c.756.282 1.542.478 2.342.583a1.666 1.666 0 0 1 1.433 1.692z" stroke="#2861CF" stroke-width="2" stroke-linecap="round" stroke-linejoin="round"></path></g><defs><clipPath id="a"><path fill="#fff" d="M0 0h20v20H0z"></path></clipPath></defs>
		</symbol>
	
		<symbol id="icon-search" viewBox="0 0 20 20">
			<circle cx="8.979" cy="8.979" r="7.979" stroke="#2861CF" stroke-width="2"></circle><path d="M17.542 18.96a1 1 0 0 0 1.414-1.414l-1.414 1.414zm-3.546-3.546l3.546 3.546 1.414-1.414L15.41 14l-1.414 1.414z" fill="#2861CF"></path>
		</symbol>
	
		<symbol id="icon-search_white" viewBox="0 0 20 20">
			<ellipse cx="9.326" cy="9.324" rx="8.326" ry="8.324" stroke="#fff" stroke-width="2"></ellipse><path d="M18.293 19.707a1 1 0 0 0 1.415-1.414l-1.415 1.414zm-3.7-3.7l3.7 3.7 1.415-1.414-3.701-3.7-1.415 1.414z" fill="#fff"></path>
		</symbol>
	
		<symbol id="link" viewBox="0 0 26 26">
			<path d="M8.115 11.442l-2.597 2.597a4.975 4.975 0 1 0 7.07 7L16 17.555M11.454 8.103l2.567-2.567a5 5 0 0 1 7.071 7.071l-2.567 2.567M9 17.5L17.5 9"></path>
		</symbol>
	
		<symbol id="logo" viewBox="0 0 141 18">
			<g clip-path="url(#a)" fill="#fff"><path d="M110.047.338c.337 1.462.898 2.756 1.797 3.993h-3.426c-1.349-1.575-1.742-3.206-1.854-3.993h3.483zm-4.382 0c.225 1.518.843 2.812 1.798 3.993h-3.427a8.52 8.52 0 0 1-1.798-3.993h3.427zm2.64 8.1c1.629-1.744 2.697-2.475 4.382-3.207h-10.393v3.207m3.708 4.218c.449-1.35.843-2.137 1.573-3.206h-5.281v3.206m11.292 3.488c.056-1.463.955-3.206 3.314-3.544l8.707.056V9.45l-9.044-.056c-4.606.394-6.123 4.725-6.067 6.693"></path><path d="M109.487 16.189c.168-2.025.73-3.825 2.135-5.232 2.022-2.137 4.55-2.474 5.617-2.418l8.426-.056V5.276h-8.875c-2.753.113-5.449 1.407-7.359 3.432a12.492 12.492 0 0 0-2.135 3.15c-.843 1.968-.843 3.6-.899 4.274m19.718-10.856h6.235v2.025h-.224c-.057-.393-.169-.675-.337-.9-.169-.225-.338-.393-.562-.506-.225-.112-.562-.112-1.011-.112h-1.349V8.65h.955c1.012 0 1.798.169 2.247.563.45.394.675.843.675 1.462 0 .45-.113.788-.338 1.069-.224.281-.561.506-.898.675-.337.169-.899.225-1.573.225h-3.876v-.225c.449 0 .73-.056.842-.169.113-.112.169-.337.169-.731V6.458c0-.394-.056-.675-.169-.844-.112-.113-.393-.169-.842-.169m2.808 3.713v2.25c0 .337.057.618.169.73.112.17.281.226.562.226a1.2 1.2 0 0 0 .955-.45c.224-.281.337-.619.337-1.069 0-.394-.113-.788-.281-1.069-.169-.281-.393-.45-.618-.506-.337-.056-.674-.112-1.124-.112zm8.033-3.882h3.483v.225c-.449 0-.73.057-.842.169-.113.113-.169.338-.169.675v5.231c0 .281 0 .45.056.563.057.112.113.168.225.281.112.056.281.113.506.113h.224v.225h-3.763v-.225c.337 0 .561-.057.674-.057.112-.056.224-.112.281-.225.056-.112.056-.281.056-.506V9.326c-.843.45-1.629.675-2.303.675-.394 0-.675-.056-.955-.168a.927.927 0 0 1-.562-.563c-.112-.225-.169-.562-.169-1.012V6.514c0-.394-.056-.675-.224-.788-.169-.112-.394-.168-.787-.168v-.282h3.483v.225a.95.95 0 0 0-.562.169c-.112.113-.224.338-.224.619v1.969c0 .225 0 .393.056.506.056.112.112.225.281.281.112.113.337.113.561.113.45 0 .899-.113 1.405-.394V6.458c0-.338 0-.563-.056-.675-.057-.113-.113-.225-.225-.282a1.12 1.12 0 0 0-.506-.112m-36.008-3.825V1.45c0-.675-.449-.731-1.292-.731s-1.348.113-1.348.844c0 .506.337.675.674.731l.842.113c.337.056.394.168.394.28-.057.17-.169.17-.562.17s-.562 0-.562-.282h-.843c0 .788.45.9 1.349.9 1.179 0 1.404-.168 1.404-.9 0-.337-.168-.562-.618-.618l-.842-.113c-.281-.112-.394-.112-.394-.337 0-.17.056-.225.506-.225.337 0 .506 0 .506.28M94.544.777v2.7h.843l-.056-2.081.955 2.025h1.46V.72h-.842l.056 2.081L96.005.72m-2.977 1.744h-.787l.393-1.181m.562 1.687l.169.45h.842L93.252.776H91.96l-.955 2.7h.9l.168-.45M88.927 1.34h.674c.28 0 .337.056.337.337 0 .338 0 .394-.337.394h-.674m0 .619h.674c.28 0 .337.112.337.337v.45h.843v-.562c0-.281-.169-.45-.562-.45v-.056c.505-.113.562-.282.562-.844 0-.619-.338-.788-1.068-.788h-1.629v2.7h.843m-2.079-2.081h.843V.776h-2.584v.619h.843v2.081h.842m-3.82-2.081h.674c.281 0 .337.056.337.338 0 .337 0 .393-.337.393h-.674m0 .563h.674c.281 0 .337.112.337.337v.45h.843v-.562c0-.281-.168-.45-.562-.45v-.056c.506-.113.562-.282.562-.844 0-.619-.337-.788-1.067-.788h-1.63v2.7h.843m-2.865-2.081h1.46V.833h-2.302v2.7h2.359V2.97h-1.46v-.506h1.348v-.506h-1.349M78.03 1.45h.842V.833h-2.584v.618h.843v2.082h.843m-5.225-2.7v2.7h.843l-.056-2.082.955 2.082h1.46v-2.7h-.842l.056 2.025-.955-2.082m-1.966.057H71.4v2.7h.843m-2.584-2.7h-.843v2.7h2.19v-.62H69.66m-2.921-1.518h1.46V.833h-2.303v2.7h2.36V2.97h-1.461v-.506h1.348v-.506h-1.348m-3.258.45h.674c.28 0 .393.056.393.28 0 .226-.112.282-.393.282h-.618m-.056-1.519h.73c.224 0 .28.057.28.225 0 .225-.056.282-.393.282h-.617m-.843 1.575h1.685c.674 0 1.067-.113 1.067-.732 0-.337-.056-.562-.561-.618v-.057c.45-.056.505-.281.505-.618 0-.563-.393-.675-1.01-.675h-1.686m38.255 6.918V7.47c0-1.744-1.18-2.194-3.258-2.194-2.36 0-3.764.338-3.764 2.588v1.744c0 2.474 1.573 2.587 3.764 2.587 2.472 0 3.258-.506 3.258-2.419v-.225h-2.19v.225c0 .788-.45.844-1.293.844-1.292 0-1.348-.394-1.348-1.406V8.145c0-.956.113-1.294 1.348-1.294.73 0 1.292.113 1.292.675v.282M87.86 5.388h-2.134v6.75h2.135V9.496h2.752v2.644h2.135v-6.75h-2.135V7.92H87.86M81.96 9.664h-1.966l.955-2.925m1.46 4.218l.394 1.182h2.19l-2.415-6.75h-3.258l-2.36 6.75h2.191l.394-1.181m-7.36-4.05h1.461c.843 0 .955.225.955.9 0 .843-.168 1.012-.955 1.012h-1.46m0 1.463h1.91c2.247 0 2.696-.62 2.696-2.475 0-1.744-.73-2.363-2.753-2.363h-3.988v6.75h2.135M67.018 7.02h2.135V5.445H62.75V7.02h2.135v5.175h2.134m-9.55-5.231h1.461c.843 0 .955.225.955.9 0 .844-.168 1.012-.955 1.012h-1.46m0 1.463h1.91c2.247 0 2.696-.619 2.696-2.475 0-1.744-.73-2.363-2.753-2.363h-3.988v6.75h2.135m-7.247-5.287h3.651V5.5h-5.73v6.75h5.843V10.79h-3.708V9.495h3.427V8.258h-3.427m-5.224-1.182h2.134V5.501h-6.403v1.575h2.134v5.175h2.135M34.942 5.558h-2.134v6.75h2.134V9.663h2.753v2.643h2.135v-6.75h-2.135V8.09h-2.753m-8.875-2.531h-2.023v6.75h2.921l2.36-4.444h.056v4.443h2.022v-6.75h-2.808l-2.472 4.444h-.056m-9.831-4.387V10c0 .675-.225.9-.787.9-.28 0-.449 0-.674-.056v1.462c.338.057.618.057 1.068.057 1.629 0 2.36-.957 2.36-2.419V7.133h2.302v5.174h2.135v-6.75M10.28 7.078h3.652V5.613h-5.73v6.75h5.842V10.9h-3.707V9.608h3.426V8.37h-3.426M2.529 9.608h1.46c.619 0 .843.112.843.675 0 .506-.224.618-.842.675H2.53m3.707-5.344H.395v6.75h4.1c1.63 0 2.472-.563 2.472-2.082 0-1.518-.843-2.08-2.472-2.08H2.53V7.02h3.708M.45 14.164h2.752v.562h-1.01v2.025h-.787v-2.025H.45m3.202-.562h.73v.393c.112-.112.225-.225.393-.337.169-.113.393-.113.562-.113.337 0 .674.113.899.338.224.225.393.563.393 1.012 0 .45-.112.788-.393 1.013-.225.225-.562.338-.899.338-.169 0-.337-.057-.45-.113-.112-.056-.28-.169-.449-.281v1.293h-.786m.786-2.306c0 .281.056.507.225.619.112.113.28.225.505.225a.637.637 0 0 0 .45-.169c.112-.112.168-.337.168-.619 0-.28-.056-.45-.168-.618a.51.51 0 0 0-.45-.225c-.224 0-.337.056-.505.168-.169.17-.225.338-.225.62zm3.427-.45l-.73-.112a.893.893 0 0 1 .449-.563c.225-.112.506-.168.899-.168.337 0 .618.056.786.112.169.056.281.169.393.281.057.113.113.338.113.619v.788c0 .225 0 .393.056.506 0 .112.056.225.168.337h-.786c0-.056-.056-.112-.056-.225 0-.056 0-.056-.056-.056-.113.113-.281.225-.45.281-.168.056-.337.113-.505.113-.337 0-.562-.056-.73-.225-.17-.169-.281-.338-.281-.563 0-.168.056-.281.112-.394.056-.112.225-.225.337-.28a4.55 4.55 0 0 1 .618-.17c.393-.056.618-.112.786-.168v-.056a.43.43 0 0 0-.112-.282c-.056-.056-.225-.056-.45-.056-.168 0-.28 0-.336.056m.842.788c-.112.056-.28.056-.505.112-.225.056-.394.056-.45.113-.056.056-.112.112-.112.225 0 .112.056.168.112.225.113.056.169.112.337.112.169 0 .281-.056.393-.112.113-.056.169-.113.169-.225 0-.056.056-.169.056-.338m1.573-1.462h.787v.956h1.18v-.956h.786v2.587h-.787v-1.069h-1.18v1.07h-.786m6.235-1.857l-.786.113c0-.113-.112-.225-.168-.282a.81.81 0 0 0-.394-.112c-.224 0-.337.056-.505.168-.113.113-.169.338-.169.62 0 .28.056.506.169.674.112.113.28.169.505.169a.81.81 0 0 0 .394-.113c.112-.056.168-.225.224-.393l.787.112c-.056.338-.225.563-.45.675-.224.169-.561.225-.955.225-.45 0-.786-.112-1.067-.337-.28-.225-.393-.563-.393-1.013 0-.45.112-.787.393-1.012.28-.225.618-.338 1.067-.338.394 0 .674.056.9.225.224.169.336.338.448.619zm.562-.731H20v2.587h-.787v-2.025h-1.067v2.025h-.787m3.371-1.35c0-.225.056-.45.225-.675.112-.225.337-.394.561-.506.225-.113.506-.169.787-.169.45 0 .842.113 1.123.394s.45.563.45.956c0 .394-.169.732-.45.957-.28.28-.674.393-1.123.393-.281 0-.562-.056-.787-.169a1.173 1.173 0 0 1-.561-.45m.618-.675c0 .282.056.45.224.62.169.112.337.224.506.224.168 0 .393-.056.505-.225.169-.112.225-.337.225-.619 0-.28-.056-.45-.225-.562-.168-.112-.337-.225-.505-.225-.169 0-.393.056-.506.225-.168.113-.224.281-.224.563zm2.92-1.293h.731v.393c.112-.112.225-.225.393-.337.169-.056.337-.113.562-.113.337 0 .674.113.899.338.224.225.393.563.393 1.012 0 .45-.112.788-.393 1.013-.225.225-.562.338-.899.338-.168 0-.337-.057-.45-.113a5.154 5.154 0 0 1-.449-.281v1.293h-.786m.786-2.306c0 .281.056.507.225.619.112.113.28.225.506.225a.637.637 0 0 0 .449-.169c.112-.112.168-.337.168-.619 0-.28-.056-.45-.168-.618-.113-.113-.281-.225-.45-.225-.224 0-.337.056-.505.168-.169.17-.225.338-.225.62zm2.36-1.237h2.752v.562h-.955v2.025h-.786v-2.025h-.955m3.145-.562h.787v.956h1.18v-.956h.786v2.587h-.786v-1.069h-1.18v1.07h-.787m3.427-1.35c0-.226.056-.45.225-.676.112-.225.337-.394.562-.506.224-.113.505-.169.786-.169.45 0 .843.113 1.124.394.28.281.45.563.45.956 0 .394-.17.732-.45.957-.281.28-.675.393-1.124.393-.28 0-.562-.056-.786-.169a1.174 1.174 0 0 1-.562-.45m.618-.675c0 .282.056.45.225.62.168.112.337.224.505.224.225 0 .393-.056.506-.225.168-.112.224-.337.224-.619 0-.28-.056-.45-.224-.562-.169-.112-.337-.225-.506-.225-.225 0-.393.056-.505.225-.169.113-.225.281-.225.563zm2.865.338v-.675h1.573v.675m.674-1.631h2.696v2.587h-.786v-2.025h-1.124v1.181c0 .282-.056.507-.112.62-.056.112-.169.224-.281.224-.112.056-.28.056-.45.056-.112 0-.28 0-.505-.056v-.506h.28c.113 0 .17-.056.226-.113 0-.056.056-.225.056-.506m3.258-.225c0-.225.056-.45.225-.675.112-.225.337-.394.561-.506.225-.113.506-.169.787-.169.45 0 .843.113 1.123.394.281.281.45.563.45.956 0 .394-.169.732-.45.957-.28.28-.674.393-1.123.393-.281 0-.562-.056-.787-.169a1.173 1.173 0 0 1-.561-.45c-.169-.168-.225-.45-.225-.73zm.843.056c0 .282.056.45.224.62.169.112.337.224.506.224.168 0 .393-.056.505-.225.169-.112.225-.337.225-.619 0-.28-.056-.45-.224-.562-.17-.112-.338-.225-.506-.225-.169 0-.393.056-.506.225-.168.113-.224.281-.224.563zm2.92-1.293h2.08v.562h-1.237v2.025h-.786m2.36-2.587h.786v1.631l1.236-1.631h.786v2.587h-.786v-1.687l-1.236 1.687h-.787m6.292-1.856l-.787.113c0-.113-.112-.225-.168-.282a.81.81 0 0 0-.393-.112c-.225 0-.337.056-.506.168-.112.113-.168.338-.168.62 0 .28.056.506.168.674.113.113.281.169.506.169a.81.81 0 0 0 .393-.113c.112-.056.168-.225.225-.393l.786.112c-.056.338-.225.563-.45.675-.224.169-.561.225-.954.225-.45 0-.787-.112-1.068-.337-.28-.225-.393-.563-.393-1.013 0-.45.112-.787.393-1.012.281-.225.618-.338 1.068-.338.393 0 .674.056.898.225m.73-.112h2.753v.562h-.955v2.025h-.786v-2.025h-.955m3.146-.562h.786v1.631l1.236-1.631h.786v2.587h-.786v-1.687l-1.236 1.687h-.786m3.539-2.587h.842v.619c0 .168 0 .225.057.337l.168.169c.112.056.225.056.393.056.169 0 .281 0 .506-.056v-1.125h.786v2.587h-.786V15.74c-.337.056-.562.112-.73.112-.225 0-.45-.056-.674-.112-.225-.113-.337-.225-.394-.338-.056-.168-.112-.337-.112-.562m5.224 1.069l.787.112c-.113.225-.281.45-.506.563a1.86 1.86 0 0 1-.843.225c-.505 0-.898-.17-1.18-.45-.224-.226-.28-.563-.28-.9 0-.45.112-.788.393-1.013.281-.225.618-.338 1.011-.338.45 0 .787.113 1.068.394.28.282.393.619.393 1.181h-2.022c0 .226.056.338.168.45.113.113.281.17.45.17.112 0 .224-.057.337-.113.112-.056.168-.169.224-.281zm.056-.675c0-.226-.056-.338-.168-.45a.606.606 0 0 0-.393-.17.637.637 0 0 0-.45.17.64.64 0 0 0-.168.45m5.224-.338l-.786.113c0-.113-.113-.225-.169-.282a.81.81 0 0 0-.393-.112c-.225 0-.337.056-.506.168-.112.113-.168.338-.168.62 0 .28.056.506.168.674.113.113.281.169.506.169a.81.81 0 0 0 .393-.113c.112-.056.169-.225.225-.393l.786.112c-.056.338-.224.563-.45.675-.224.169-.56.225-.954.225-.45 0-.787-.112-1.068-.337-.28-.225-.393-.563-.393-1.013 0-.45.113-.787.393-1.012.281-.225.619-.338 1.068-.338.393 0 .674.056.899.225m1.01-.112h.787v1.069a.429.429 0 0 0 .281-.113c.056-.056.113-.169.225-.394.112-.281.225-.394.337-.506.112-.056.28-.113.505-.113h.337v.45c-.224 0-.337 0-.393.057-.056.056-.112.168-.168.337-.113.225-.225.394-.393.45.28.056.449.225.618.563 0 0 0 .056.056.056l.45.731h-.844l-.393-.731c-.056-.169-.168-.225-.224-.281-.057-.057-.169-.057-.281-.057v1.126h-.787m2.865-2.644h.787v1.631l1.235-1.631h.787v2.587h-.787v-1.687l-1.235 1.687h-.787m3.595-2.587h.787v1.631l1.236-1.631h.786v2.587h-.786v-1.687l-1.236 1.687h-.787m1.91-3.656h.394a.591.591 0 0 1-.281.506 1.132 1.132 0 0 1-.618.169c-.281 0-.45-.056-.618-.169-.169-.112-.225-.281-.281-.506h.393a.31.31 0 0 0 .169.281c.056.056.224.113.337.113.112 0 .28-.057.337-.113m3.483.788h.786v2.025h1.124v-2.025h.786v2.025h.337v1.237h-.674v-.675h-2.415m5.505-.844l.786.113c-.112.225-.28.45-.505.563a1.859 1.859 0 0 1-.843.225c-.506 0-.899-.17-1.18-.45-.225-.226-.28-.563-.28-.9 0-.45.112-.788.393-1.013.28-.225.617-.338 1.01-.338.45 0 .787.113 1.068.394.28.282.393.619.393 1.181h-2.022c0 .226.056.338.168.45.113.113.281.17.45.17.112 0 .225-.057.337-.113m.225-.957c0-.224-.056-.337-.169-.45a.606.606 0 0 0-.393-.168.637.637 0 0 0-.45.168.639.639 0 0 0-.168.45m2.64-1.068h.787v.956h1.18v-.956h.786v2.587h-.787v-1.069h-1.18v1.07h-.786m3.202-2.588h2.753v.562h-.955v2.025h-.787v-2.025h-.955m3.146-.562h.73v.393c.113-.112.225-.225.394-.337.168-.056.337-.113.561-.113.337 0 .675.113.899.338.225.225.393.563.393 1.012 0 .45-.112.788-.393 1.013-.224.225-.562.338-.899.338-.168 0-.337-.057-.449-.113-.112-.056-.28-.169-.45-.281v1.293h-.786m.843-2.306c0 .281.056.507.224.619.113.113.281.225.506.225a.64.64 0 0 0 .45-.169c.112-.112.168-.337.168-.619 0-.28-.056-.45-.168-.618-.113-.113-.281-.225-.45-.225-.225 0-.337.056-.505.168-.169.17-.225.338-.225.62z"></path></g><defs><clipPath id="a"><path fill="#fff" d="M0 0h141v18H0z"></path></clipPath></defs>
		</symbol>
	
		<symbol id="play" viewBox="0 0 30 30">
			<path d="M5 15v-4.45c0-5.525 3.912-7.787 8.7-5.025l3.863 2.225 3.862 2.225c4.787 2.763 4.787 7.287 0 10.05l-3.863 2.225-3.862 2.225c-4.787 2.762-8.7.5-8.7-5.025V15z"></path>
		</symbol>
	
		<symbol id="required" viewBox="0 0 11 13">
			<path d="M11 8.788l-.842 1.507-3.028-1.82a8.453 8.453 0 0 1-.59-.404 2.363 2.363 0 0 1-.467-.514c.18.428.269.888.269 1.378V12.5H4.64V8.953c0-.245.012-.471.036-.68.036-.22.101-.435.197-.643-.131.172-.28.325-.448.46a5 5 0 0 1-.555.386l-3.01 1.8L.018 8.77l3.01-1.801c.215-.123.424-.22.627-.294.203-.086.418-.141.645-.166a3.048 3.048 0 0 1-1.272-.478L0 4.212l.842-1.507 3.028 1.82c.215.134.406.275.573.422.18.147.334.319.466.515a3.053 3.053 0 0 1-.215-.662 4.705 4.705 0 0 1-.054-.717V.5h1.702v3.547c0 .245-.018.484-.054.716-.024.22-.077.435-.161.644.131-.184.28-.343.448-.478.167-.135.352-.27.555-.405l3.01-1.782.842 1.507-3.01 1.782a4.782 4.782 0 0 1-.609.313c-.19.086-.394.14-.609.165.406.05.812.202 1.218.46L11 8.788z" fill="#2861CF"></path>
		</symbol>
	
		<symbol id="shape" viewBox="0 0 24 24">
			<path d="M9.097 0a1.355 1.355 0 1 0 0 2.71h10.277L.397 21.687a1.355 1.355 0 0 0 1.916 1.916L21.29 4.626v10.277a1.355 1.355 0 1 0 2.71 0V1.355C24 .607 23.393 0 22.645 0H9.097z"></path>
		</symbol>
	
		<symbol id="shape-short" viewBox="0 0 16 16">
			<path d="M1.333 0a1.333 1.333 0 0 0 0 2.667h10.115L.39 13.724a1.333 1.333 0 1 0 1.885 1.886L13.333 4.552v10.115a1.333 1.333 0 0 0 2.667 0V1.333C16 .597 15.403 0 14.667 0H1.333z"></path>
		</symbol>
	
		<symbol id="telegram" viewBox="0 0 26 26">
			<path d="M4.226 12.403s8.846-3.731 11.914-5.045c1.175-.526 5.164-2.208 5.164-2.208s1.84-.736 1.687 1.051c-.051.736-.46 3.312-.87 6.097-.613 3.943-1.278 8.252-1.278 8.252s-.102 1.21-.971 1.42c-.87.21-2.3-.736-2.556-.946-.205-.158-3.835-2.523-5.165-3.68-.358-.315-.767-.946.051-1.682 1.841-1.734 4.04-3.89 5.37-5.256.613-.63 1.226-2.102-1.33-.315-3.63 2.575-7.21 4.993-7.21 4.993s-.818.526-2.352.053c-1.534-.473-3.323-1.104-3.323-1.104s-1.227-.788.87-1.63z"></path>
		</symbol>
	
		<symbol id="viber" viewBox="0 0 26 27">
			<path d="M6.89 23.49v-1.306a.13.13 0 0 0-.065-.137 7.554 7.554 0 0 1-2.996-1.614 7.072 7.072 0 0 1-1.519-1.947 10.564 10.564 0 0 1-1.075-3.374 24.675 24.675 0 0 1-.213-4.453c.014-.694.05-1.38.13-2.073a12.51 12.51 0 0 1 .995-3.823 6.626 6.626 0 0 1 3.348-3.367C6.515.933 7.59.596 8.692.39a22.869 22.869 0 0 1 3.276-.373c.992-.034 1.984-.02 2.974.044 1.417.059 2.82.291 4.18.691 1.008.288 1.967.723 2.845 1.291a6.07 6.07 0 0 1 2.01 2.288 11.345 11.345 0 0 1 1.097 3.413c.118.705.196 1.416.232 2.13.052.884.046 1.773.012 2.654a29.53 29.53 0 0 1-.219 2.599 9.57 9.57 0 0 1-1.182 3.687 6.85 6.85 0 0 1-3.762 3.054 17.39 17.39 0 0 1-3.348.8c-.834.114-1.67.197-2.51.23-.643.03-1.286.022-1.929.012-.364 0-.726-.035-1.088-.067a.185.185 0 0 0-.188.08 88.989 88.989 0 0 1-2.259 2.56 2.13 2.13 0 0 1-.48.395.899.899 0 0 1-1.35-.497 2.343 2.343 0 0 1-.11-.733c-.003-.39-.003-.774-.003-1.158zm.886 1.654l.094-.087 1.662-1.826 1.917-2.11a.302.302 0 0 1 .278-.123c.217.022.434.03.653.031.757 0 1.513 0 2.27-.053a26.598 26.598 0 0 0 2.052-.242 20.994 20.994 0 0 0 2.173-.495c1.593-.423 2.825-1.33 3.6-2.798.456-.902.743-1.88.845-2.884.121-.947.193-1.9.217-2.854a18.295 18.295 0 0 0-.247-3.58 10.062 10.062 0 0 0-.74-2.487c-.45-.985-1.087-1.8-2.068-2.325-1.505-.804-3.133-1.163-4.811-1.346a20.391 20.391 0 0 0-1.43-.096 26.062 26.062 0 0 0-2.936.015c-.703.052-1.402.146-2.094.28a10.52 10.52 0 0 0-2.92.985 5.283 5.283 0 0 0-1.429 1.047 6.559 6.559 0 0 0-1.437 2.58 13.171 13.171 0 0 0-.531 3.424c-.065 1.16-.05 2.322.043 3.48.058.689.175 1.372.349 2.041a6.86 6.86 0 0 0 1.465 2.83 6.03 6.03 0 0 0 2.836 1.742c.137.04.2.088.2.242-.013.567 0 1.135 0 1.702l-.01 2.907z"></path><path d="M6.385 7.544c-.014-.432.223-.745.51-1.027a7.173 7.173 0 0 1 1.241-.944 1.004 1.004 0 0 1 1.288.21 11.978 11.978 0 0 1 1.447 1.834c.209.295.366.623.466.97a.78.78 0 0 1-.199.776c-.23.223-.474.43-.732.62a.839.839 0 0 0-.29.881 4.18 4.18 0 0 0 1.046 1.99 6.047 6.047 0 0 0 2.388 1.748c.23.117.491.152.743.1a.682.682 0 0 0 .35-.226c.14-.175.29-.345.416-.532a1.108 1.108 0 0 1 1.505-.294c.675.388 1.312.836 1.903 1.34.14.118.285.233.424.353a.938.938 0 0 1 .305 1.096c-.123.32-.303.616-.53.875a3.533 3.533 0 0 1-1.057.961 1.483 1.483 0 0 1-1.322.085 17.508 17.508 0 0 1-4.464-2.6 17.378 17.378 0 0 1-3.424-3.743A15.491 15.491 0 0 1 6.51 8.25a4.76 4.76 0 0 1-.12-.49 1.044 1.044 0 0 1-.004-.217zM13.254 5.447a5.788 5.788 0 0 1 3.662 1.39 5.682 5.682 0 0 1 1.911 3.39c.087.48.134.964.14 1.45 0 .115-.03.198-.154.21-.123.011-.155-.093-.155-.197a6.543 6.543 0 0 0-.597-2.856 5.287 5.287 0 0 0-1.5-1.89 5.356 5.356 0 0 0-2.193-1.036 5.932 5.932 0 0 0-1.292-.15.447.447 0 0 1-.125-.015.14.14 0 0 1-.082-.064.137.137 0 0 1-.015-.102.123.123 0 0 1 .08-.114.127.127 0 0 1 .049-.008c.09-.012.181-.008.27-.008z"></path><path d="M17.098 10.791a3.475 3.475 0 0 0-.397-1.572 3.514 3.514 0 0 0-1.07-1.226 3.786 3.786 0 0 0-1.767-.656c-.108-.014-.215-.02-.325-.032-.11-.011-.175-.057-.165-.167.01-.11.08-.15.2-.142 1.763.106 3.263 1.094 3.725 2.932a4.6 4.6 0 0 1 .126 1.082v.098c0 .099-.064.164-.162.162a.16.16 0 0 1-.145-.108.156.156 0 0 1-.008-.064c-.016-.092-.012-.187-.012-.307z"></path><path d="M14.008 8.596c.967.065 1.642.534 1.827 1.552.023.13.038.262.048.395 0 .106-.024.197-.141.197-.118 0-.158-.08-.162-.197a1.904 1.904 0 0 0-.348-1.092 1.477 1.477 0 0 0-.951-.528 2.163 2.163 0 0 0-.253-.032c-.14 0-.217-.069-.2-.175.019-.107.102-.126.18-.12z" fill="#2861CF"></path>
		</symbol>
	
		<symbol id="whatsapp" viewBox="0 0 26 26">
			<path clip-rule="evenodd" d="M17.137 15.043a1.98 1.98 0 0 0-1.695-.385c-.44.183-.725.872-1.01 1.217a.42.42 0 0 1-.542.122 7.675 7.675 0 0 1-3.838-3.28.459.459 0 0 1 .062-.635 2.65 2.65 0 0 0 .677-1.13c.029-.471-.08-.94-.311-1.352a3.164 3.164 0 0 0-.983-1.481 1.359 1.359 0 0 0-1.458.223 2.99 2.99 0 0 0-1.037 2.367c0 .25.033.5.095.744.157.584.4 1.142.718 1.656.23.395.482.776.753 1.143a11.548 11.548 0 0 0 3.26 3.016c.64.4 1.322.724 2.035.967.74.335 1.558.463 2.365.372a2.844 2.844 0 0 0 2.143-1.59 1.35 1.35 0 0 0 .101-.81c-.122-.562-.874-.893-1.335-1.164z"></path><path d="M1 25l1.722-6.397a11.82 11.82 0 0 1-1.243-8.19 11.844 11.844 0 0 1 4.44-7 11.899 11.899 0 0 1 15.528 1.003 11.825 11.825 0 0 1 1.206 15.474 11.88 11.88 0 0 1-6.96 4.52c-2.789.62-5.71.218-8.226-1.134L1 25zm6.78-4.118l.4.237a9.62 9.62 0 0 0 11.626-1.411A9.554 9.554 0 0 0 21.41 8.136a9.592 9.592 0 0 0-4.634-4.088 9.623 9.623 0 0 0-6.171-.42 9.6 9.6 0 0 0-5.147 3.424 9.56 9.56 0 0 0-1.985 5.844 9.45 9.45 0 0 0 1.404 4.963l.25.413-.962 3.57 3.613-.96z"></path>
		</symbol>
	
		<symbol id="youtube" viewBox="0 0 26 20">
			<path d="M25.264 3.673c-.294-1.13-1.162-2.021-2.263-2.324C21.005.8 12.999.8 12.999.8s-8.005 0-10.002.55C1.896 1.651 1.028 2.541.734 3.672.2 5.723.2 10 .2 10s0 4.277.535 6.327c.294 1.13 1.162 2.021 2.263 2.324C4.994 19.2 13 19.2 13 19.2s8.006 0 10.002-.55c1.101-.302 1.969-1.192 2.263-2.323C25.8 14.277 25.8 10 25.8 10s0-4.277-.535-6.327z" fill="#fff"></path><path d="M10.598 14.4v-8l6.4 4-6.4 4z" fill="#F00"></path>
		</symbol>
	
		<symbol id="youtube-icon" viewBox="0 0 30 21">
			<path d="M28.516 3.24c-.332-1.275-1.31-2.28-2.552-2.62C23.712 0 14.684 0 14.684 0S5.658 0 3.407.62C2.163.96 1.186 1.964.853 3.24.25 5.552.25 10.375.25 10.375s0 4.823.603 7.135c.332 1.275 1.31 2.28 2.553 2.62 2.251.62 11.279.62 11.279.62s9.027 0 11.279-.62c1.242-.34 2.22-1.345 2.552-2.62.604-2.312.604-7.135.604-7.135s0-4.823-.604-7.135"></path><path d="M11.979 15.337V6.315l7.217 4.511-7.218 4.51z"></path>
		</symbol>
	
</svg>
