<svg width="20" height="20" viewBox="0 0 20 20" fill="none" xmlns="http://www.w3.org/2000/svg">
<path d="M15.5892 5.58925C15.9147 5.26381 15.9147 4.73617 15.5892 4.41073C15.2638 4.0853 14.7361 4.0853 14.4107 4.41073L9.99996 8.82148L5.58921 4.41073C5.26378 4.0853 4.73614 4.0853 4.4107 4.41073C4.08527 4.73617 4.08527 5.26381 4.4107 5.58925L8.82145 9.99999L4.4107 14.4107C4.08527 14.7362 4.08527 15.2638 4.4107 15.5892C4.73614 15.9147 5.26378 15.9147 5.58921 15.5892L9.99996 11.1785L14.4107 15.5892C14.7361 15.9147 15.2638 15.9147 15.5892 15.5892C15.9147 15.2638 15.9147 14.7362 15.5892 14.4107L11.1785 9.99999L15.5892 5.58925Z" fill="#E7EBF3"/>
</svg>
