<svg width="20" height="20" viewBox="0 0 20 20" fill="none" xmlns="http://www.w3.org/2000/svg">
<path d="M18.9428 2.94289C19.4635 2.42219 19.4635 1.57797 18.9428 1.05727C18.4221 0.536573 17.5779 0.536573 17.0572 1.05727L10 8.11446L2.94283 1.05727C2.42213 0.536573 1.57791 0.536573 1.05721 1.05727C0.536512 1.57797 0.536512 2.42219 1.05721 2.94289L8.1144 10.0001L1.05721 17.0573C0.536512 17.578 0.536512 18.4222 1.05721 18.9429C1.57791 19.4636 2.42213 19.4636 2.94283 18.9429L10 11.8857L17.0572 18.9429C17.5779 19.4636 18.4221 19.4636 18.9428 18.9429C19.4635 18.4222 19.4635 17.578 18.9428 17.0573L11.8856 10.0001L18.9428 2.94289Z" fill="white"/>
</svg>
