<svg width="54" height="54" viewBox="0 0 54 54" fill="none" xmlns="http://www.w3.org/2000/svg">
<path fill-rule="evenodd" clip-rule="evenodd" d="M7.875 15.75C7.875 9.5368 12.9118 4.5 19.125 4.5C25.3382 4.5 30.375 9.5368 30.375 15.75C30.375 21.9632 25.3382 27 19.125 27C12.9118 27 7.875 21.9632 7.875 15.75ZM19.125 9C15.3971 9 12.375 12.0221 12.375 15.75C12.375 19.4779 15.3971 22.5 19.125 22.5C22.8529 22.5 25.875 19.4779 25.875 15.75C25.875 12.0221 22.8529 9 19.125 9Z" fill="#2861CF"/>
<path d="M3.29505 34.7951C5.40483 32.6853 8.26631 31.5 11.25 31.5H27C29.9837 31.5 32.8452 32.6853 34.955 34.7951C37.0647 36.9048 38.25 39.7663 38.25 42.75V47.25C38.25 48.4926 37.2426 49.5 36 49.5C34.7574 49.5 33.75 48.4926 33.75 47.25V42.75C33.75 40.9598 33.0388 39.2429 31.773 37.977C30.5071 36.7112 28.7902 36 27 36H11.25C9.45979 36 7.7429 36.7112 6.47703 37.977C5.21116 39.2429 4.5 40.9598 4.5 42.75V47.25C4.5 48.4926 3.49264 49.5 2.25 49.5C1.00736 49.5 0 48.4926 0 47.25V42.75C0 39.7663 1.18526 36.9048 3.29505 34.7951Z" fill="#2861CF"/>
<path d="M53.341 21.841C54.2197 20.9623 54.2197 19.5377 53.341 18.659C52.4623 17.7803 51.0377 17.7803 50.159 18.659L42.75 26.068L39.841 23.159C38.9623 22.2803 37.5377 22.2803 36.659 23.159C35.7803 24.0377 35.7803 25.4623 36.659 26.341L41.159 30.841C42.0377 31.7197 43.4623 31.7197 44.341 30.841L53.341 21.841Z" fill="#2861CF"/>
</svg>
