<svg width="20" height="20" viewBox="0 0 20 20" fill="none" xmlns="http://www.w3.org/2000/svg">
<path fill-rule="evenodd" clip-rule="evenodd" d="M0.834097 4.98555C0.833962 4.99377 0.833948 5.00199 0.834056 5.01021V15C0.834056 16.3769 1.95715 17.5 3.33406 17.5H16.6674C18.0443 17.5 19.1674 16.3769 19.1674 15V5.0103C19.1675 5.00202 19.1675 4.99372 19.1673 4.98543C19.1595 3.61518 18.0394 2.5 16.6674 2.5H3.33406C1.96197 2.5 0.841923 3.61525 0.834097 4.98555ZM2.58954 4.62829C2.72735 4.35577 3.01076 4.16667 3.33406 4.16667H16.6674C16.9907 4.16667 17.2741 4.35577 17.4119 4.62829L10.0007 9.81612L2.58954 4.62829ZM17.5007 6.60055V15C17.5007 15.4564 17.1238 15.8333 16.6674 15.8333H3.33406C2.87763 15.8333 2.50072 15.4564 2.50072 15V6.60055L9.52284 11.516C9.80977 11.7169 10.1917 11.7169 10.4786 11.516L17.5007 6.60055Z" fill="#2861CF"/>
</svg>
