<svg width="30" height="30" viewBox="0 0 30 30" fill="none" xmlns="http://www.w3.org/2000/svg">
<path d="M10 15C9.30964 15 8.75 15.5596 8.75 16.25C8.75 16.9404 9.30964 17.5 10 17.5H20C20.6904 17.5 21.25 16.9404 21.25 16.25C21.25 15.5596 20.6904 15 20 15H10Z" />
<path d="M8.75 21.25C8.75 20.5596 9.30964 20 10 20H20C20.6904 20 21.25 20.5596 21.25 21.25C21.25 21.9404 20.6904 22.5 20 22.5H10C9.30964 22.5 8.75 21.9404 8.75 21.25Z" />
<path d="M10 10C9.30964 10 8.75 10.5596 8.75 11.25C8.75 11.9404 9.30964 12.5 10 12.5H12.5C13.1904 12.5 13.75 11.9404 13.75 11.25C13.75 10.5596 13.1904 10 12.5 10H10Z" />
<path fill-rule="evenodd" clip-rule="evenodd" d="M4.84835 2.34835C5.55161 1.64509 6.50544 1.25 7.5 1.25H17.5C17.8315 1.25 18.1495 1.3817 18.3839 1.61612L25.8839 9.11612C26.1183 9.35054 26.25 9.66848 26.25 10V25C26.25 25.9946 25.8549 26.9484 25.1517 27.6517C24.4484 28.3549 23.4946 28.75 22.5 28.75H7.5C6.50544 28.75 5.55161 28.3549 4.84835 27.6517C4.14509 26.9484 3.75 25.9946 3.75 25V5C3.75 4.00544 4.14509 3.05161 4.84835 2.34835ZM7.5 3.75C7.16848 3.75 6.85054 3.8817 6.61612 4.11612C6.3817 4.35054 6.25 4.66848 6.25 5V25C6.25 25.3315 6.3817 25.6495 6.61612 25.8839C6.85054 26.1183 7.16848 26.25 7.5 26.25H22.5C22.8315 26.25 23.1495 26.1183 23.3839 25.8839C23.6183 25.6495 23.75 25.3315 23.75 25V11.25H17.5C16.8096 11.25 16.25 10.6904 16.25 10V3.75H7.5ZM18.75 5.51777L21.9822 8.75H18.75V5.51777Z" />
</svg>
