<svg width="54" height="54" viewBox="0 0 54 54" fill="none" xmlns="http://www.w3.org/2000/svg">
<path d="M9.65901 9.65901C10.081 9.23705 10.6533 9 11.25 9H36C37.2426 9 38.25 7.99264 38.25 6.75C38.25 5.50736 37.2426 4.5 36 4.5H11.25C9.45979 4.5 7.7429 5.21116 6.47703 6.47703C5.21116 7.7429 4.5 9.45979 4.5 11.25V42.75C4.5 44.5402 5.21116 46.2571 6.47703 47.523C7.7429 48.7888 9.45979 49.5 11.25 49.5H42.75C44.5402 49.5 46.2571 48.7888 47.523 47.523C48.7888 46.2571 49.5 44.5402 49.5 42.75V27C49.5 25.7574 48.4926 24.75 47.25 24.75C46.0074 24.75 45 25.7574 45 27V42.75C45 43.3467 44.7629 43.919 44.341 44.341C43.919 44.7629 43.3467 45 42.75 45H11.25C10.6533 45 10.081 44.7629 9.65901 44.341C9.23705 43.919 9 43.3467 9 42.75V11.25C9 10.6533 9.23705 10.081 9.65901 9.65901Z" fill="#2861CF"/>
<path d="M28.591 33.091L51.091 10.591C51.9697 9.71231 51.9697 8.28769 51.091 7.40901C50.2123 6.53033 48.7877 6.53033 47.909 7.40901L27 28.318L21.841 23.159C20.9623 22.2803 19.5377 22.2803 18.659 23.159C17.7803 24.0377 17.7803 25.4623 18.659 26.341L25.409 33.091C26.2877 33.9697 27.7123 33.9697 28.591 33.091Z" fill="#2861CF"/>
</svg>
