<svg width="52" height="52" viewBox="0 0 52 52" fill="none" xmlns="http://www.w3.org/2000/svg">
<path fill-rule="evenodd" clip-rule="evenodd" d="M2.16667 4.33337C0.97005 4.33337 0 5.30342 0 6.50004V34.6667C0 35.8633 0.97005 36.8334 2.16667 36.8334H5.0631C4.59517 37.8184 4.33333 38.9203 4.33333 40.0834C4.33333 44.2715 7.72851 47.6667 11.9167 47.6667C16.1048 47.6667 19.5 44.2715 19.5 40.0834C19.5 38.9203 19.2382 37.8184 18.7702 36.8334H33.2298C32.7618 37.8184 32.5 38.9203 32.5 40.0834C32.5 44.2715 35.8952 47.6667 40.0833 47.6667C44.2715 47.6667 47.6667 44.2715 47.6667 40.0834C47.6667 38.9203 47.4048 37.8184 46.9369 36.8334H49.8333C51.0299 36.8334 52 35.8633 52 34.6667V23.8334C52 23.2587 51.7717 22.7076 51.3654 22.3013L44.8654 15.8013C44.4591 15.395 43.908 15.1667 43.3333 15.1667H36.8333V6.50004C36.8333 5.30342 35.8633 4.33337 34.6667 4.33337H2.16667ZM47.6667 32.5V24.7308L42.4359 19.5H36.8333V32.5H47.6667ZM40.0833 36.8334C38.2884 36.8334 36.8333 38.2884 36.8333 40.0834C36.8333 41.8783 38.2884 43.3334 40.0833 43.3334C41.8783 43.3334 43.3333 41.8783 43.3333 40.0834C43.3333 38.2884 41.8783 36.8334 40.0833 36.8334ZM8.66667 40.0834C8.66667 38.2884 10.1217 36.8334 11.9167 36.8334C13.7116 36.8334 15.1667 38.2884 15.1667 40.0834C15.1667 41.8783 13.7116 43.3334 11.9167 43.3334C10.1217 43.3334 8.66667 41.8783 8.66667 40.0834ZM32.5 32.5H4.33333V8.66671H32.5V32.5Z" fill="#2861CF"/>
</svg>
