<svg width="141" height="18" viewBox="0 0 141 18" fill="none" xmlns="http://www.w3.org/2000/svg">
<g clip-path="url(#clip0_445_8120)">
<path d="M110.047 0.337524C110.384 1.80002 110.945 3.09377 111.844 4.33127H108.418C107.069 2.75627 106.676 1.12502 106.564 0.337524H110.047ZM105.665 0.337524C105.89 1.85627 106.508 3.15002 107.463 4.33127H104.036C102.744 2.75627 102.351 1.06877 102.238 0.337524H105.665ZM108.305 8.43752C109.934 6.69377 111.002 5.96252 112.687 5.23127H102.294V8.43752M106.002 12.6563C106.451 11.3063 106.845 10.5188 107.575 9.45002H102.294V12.6563M113.586 16.1438C113.642 14.6813 114.541 12.9375 116.9 12.6L125.607 12.6563V9.45002L116.563 9.39378C111.957 9.78753 110.44 14.1188 110.496 16.0875" fill="white"/>
<path d="M109.487 16.1888C109.655 14.1638 110.217 12.3638 111.622 10.9575C113.644 8.82003 116.172 8.48253 117.239 8.53878L125.665 8.48253V5.27628H116.79C114.037 5.38878 111.341 6.68253 109.431 8.70753C108.532 9.66378 107.802 10.7888 107.296 11.8575C106.453 13.8263 106.453 15.4575 106.397 16.1325M126.115 5.27628H132.35V7.30128H132.126C132.069 6.90753 131.957 6.62628 131.789 6.40128C131.62 6.17628 131.451 6.00753 131.227 5.89503C131.002 5.78253 130.665 5.78253 130.216 5.78253H128.867V8.65128H129.822C130.834 8.65128 131.62 8.82003 132.069 9.21378C132.519 9.60753 132.744 10.0575 132.744 10.6763C132.744 11.1263 132.631 11.4638 132.406 11.745C132.182 12.0263 131.845 12.2513 131.508 12.42C131.171 12.5888 130.609 12.645 129.935 12.645H126.059V12.42C126.508 12.42 126.789 12.3638 126.901 12.2513C127.014 12.1388 127.07 11.9138 127.07 11.52V6.45753C127.07 6.06378 127.014 5.78253 126.901 5.61378C126.789 5.50128 126.508 5.44503 126.059 5.44503M128.867 9.15753V11.4075C128.867 11.745 128.924 12.0263 129.036 12.1388C129.148 12.3075 129.317 12.3638 129.598 12.3638C129.991 12.3638 130.328 12.195 130.553 11.9138C130.777 11.6325 130.89 11.295 130.89 10.845C130.89 10.4513 130.777 10.0575 130.609 9.77628C130.44 9.49503 130.216 9.32628 129.991 9.27003C129.654 9.21378 129.317 9.15753 128.867 9.15753ZM136.9 5.27628H140.383V5.50128C139.934 5.50128 139.653 5.55753 139.541 5.67003C139.428 5.78253 139.372 6.00753 139.372 6.34503V11.5763C139.372 11.8575 139.372 12.0263 139.428 12.1388C139.485 12.2513 139.541 12.3075 139.653 12.42C139.765 12.4763 139.934 12.5325 140.159 12.5325H140.383V12.7575H136.62V12.5325C136.957 12.5325 137.181 12.4763 137.294 12.4763C137.406 12.42 137.518 12.3638 137.575 12.2513C137.631 12.1388 137.631 11.97 137.631 11.745V9.32628C136.788 9.77628 136.002 10.0013 135.328 10.0013C134.934 10.0013 134.653 9.94503 134.373 9.83253C134.092 9.72003 133.923 9.55128 133.811 9.27003C133.699 9.04503 133.642 8.70753 133.642 8.25753V6.51378C133.642 6.12003 133.586 5.83878 133.418 5.72628C133.249 5.61378 133.024 5.55753 132.631 5.55753V5.27628H136.114V5.50128C135.889 5.50128 135.721 5.55753 135.552 5.67003C135.44 5.78253 135.328 6.00753 135.328 6.28878V8.25753C135.328 8.48253 135.328 8.65128 135.384 8.76378C135.44 8.87628 135.496 8.98878 135.665 9.04503C135.777 9.15753 136.002 9.15753 136.226 9.15753C136.676 9.15753 137.125 9.04503 137.631 8.76378V6.45753C137.631 6.12003 137.631 5.89503 137.575 5.78253C137.518 5.67003 137.462 5.55753 137.35 5.50128C137.238 5.44503 137.069 5.38878 136.844 5.38878M100.836 1.56378V1.45128C100.836 0.776282 100.387 0.720032 99.5439 0.720032C98.7013 0.720032 98.1957 0.832532 98.1957 1.56378C98.1957 2.07003 98.5328 2.23878 98.8698 2.29503L99.7124 2.40753C100.049 2.46378 100.106 2.57628 100.106 2.68878C100.049 2.85753 99.9371 2.85753 99.5439 2.85753C99.1507 2.85753 98.9822 2.85753 98.9822 2.57628H98.1395C98.1395 3.36378 98.5889 3.47628 99.4877 3.47628C100.667 3.47628 100.892 3.30753 100.892 2.57628C100.892 2.23878 100.724 2.01378 100.274 1.95753L99.4316 1.84503C99.1507 1.73253 99.0383 1.73253 99.0383 1.50753C99.0383 1.33878 99.0945 1.28253 99.5439 1.28253C99.881 1.28253 100.05 1.28253 100.05 1.56378M94.5443 0.776282V3.47628H95.387L95.3308 1.39503L96.2858 3.42003H97.7463V0.720032H96.9037L96.9599 2.80128L96.0049 0.720032M93.0276 2.46378H92.2411L92.6344 1.28253M93.1961 2.97003L93.3646 3.42003H94.2073L93.2523 0.776282H91.9603L91.0053 3.47628H91.9041L92.0726 3.02628M88.9268 1.33878H89.6009C89.8818 1.33878 89.938 1.39503 89.938 1.67628C89.938 2.01378 89.938 2.07003 89.6009 2.07003H88.9268M88.9268 2.68878H89.6009C89.8818 2.68878 89.938 2.80128 89.938 3.02628V3.47628H90.7806V2.91378C90.7806 2.63253 90.6121 2.46378 90.2188 2.46378V2.40753C90.7244 2.29503 90.7806 2.12628 90.7806 1.56378C90.7806 0.945032 90.4435 0.776282 89.7132 0.776282H88.0842V3.47628H88.9268M86.8483 1.39503H87.6909V0.776282H85.1069V1.39503H85.9495V3.47628H86.7921M82.9722 1.39503H83.6463C83.9272 1.39503 83.9834 1.45128 83.9834 1.73253C83.9834 2.07003 83.9834 2.12628 83.6463 2.12628H82.9722M82.9722 2.68878H83.6463C83.9272 2.68878 83.9834 2.80128 83.9834 3.02628V3.47628H84.826V2.91378C84.826 2.63253 84.6575 2.46378 84.2642 2.46378V2.40753C84.7698 2.29503 84.826 2.12628 84.826 1.56378C84.826 0.945032 84.4889 0.776282 83.7587 0.776282H82.1296V3.47628H82.9722M80.1073 1.39503H81.5678V0.832532H79.2646V3.53253H81.624V2.97003H80.1634V2.46378H81.5117V1.95753H80.1634M78.0288 1.45128H78.8714V0.832532H76.2874V1.45128H77.13V3.53253H77.9726M72.7483 0.832532V3.53253H73.5909L73.5348 1.45128L74.4897 3.53253H75.9503V0.832532H75.1077L75.1638 2.85753L74.2089 0.776282M72.2427 0.832532H71.4001V3.53253H72.2427M69.6587 0.832532H68.816V3.53253H71.0069V2.91378H69.6587M66.7376 1.39503H68.1981V0.832532H65.8949V3.53253H68.2543V2.97003H66.7937V2.46378H68.1419V1.95753H66.7937M63.5356 2.40753H64.2097C64.4905 2.40753 64.6029 2.46378 64.6029 2.68878C64.6029 2.91378 64.4905 2.97003 64.2097 2.97003H63.5917M63.5356 1.45128H64.2658C64.4905 1.45128 64.5467 1.50753 64.5467 1.67628C64.5467 1.90128 64.4905 1.95753 64.1535 1.95753H63.5356M62.6929 3.53253H64.3782C65.0523 3.53253 65.4455 3.42003 65.4455 2.80128C65.4455 2.46378 65.3893 2.23878 64.8838 2.18253V2.12628C65.3332 2.07003 65.3893 1.84503 65.3893 1.50753C65.3893 0.945032 64.9961 0.832532 64.3782 0.832532H62.6929M100.948 7.75128V7.47003C100.948 5.72628 99.7686 5.27628 97.6901 5.27628C95.3308 5.27628 93.9264 5.61378 93.9264 7.86378V9.60753C93.9264 12.0825 95.4993 12.195 97.6901 12.195C100.162 12.195 100.948 11.6888 100.948 9.77628V9.55128H98.7575V9.77628C98.7575 10.5638 98.3081 10.62 97.4654 10.62C96.1734 10.62 96.1172 10.2263 96.1172 9.21378V8.14503C96.1172 7.18878 96.2296 6.85128 97.4654 6.85128C98.1957 6.85128 98.7575 6.96378 98.7575 7.52628V7.80753M87.8595 5.38878H85.7248V12.1388H87.8595V9.49503H90.6121V12.1388H92.7467V5.38878H90.6121V7.92003H87.8595M81.9611 9.66378H79.9949L80.9499 6.73878M82.4105 10.9575L82.8037 12.1388H84.9945L82.579 5.38878H79.3208L76.9615 12.1388H79.1523L79.5455 10.9575M72.1866 6.90753H73.6471C74.4897 6.90753 74.6021 7.13253 74.6021 7.80753C74.6021 8.65128 74.4336 8.82003 73.6471 8.82003H72.1866M72.1866 10.2825H74.0965C76.3435 10.2825 76.7929 9.66378 76.7929 7.80753C76.7929 6.06378 76.0627 5.44503 74.0403 5.44503H70.0519V12.195H72.1866M67.0184 7.02003H69.1531V5.44503H62.7491V7.02003H64.8838V12.195H67.0184M57.4686 6.96378H58.9292C59.7718 6.96378 59.8842 7.18878 59.8842 7.86378C59.8842 8.70753 59.7156 8.87628 58.9292 8.87628H57.4686M57.4686 10.3388H59.3786C61.6256 10.3388 62.075 9.72003 62.075 7.86378C62.075 6.12003 61.3447 5.50128 59.3224 5.50128H55.334V12.2513H57.4686M50.222 6.96378H53.8734V5.50128H48.1435V12.2513H53.9858V10.7888H50.2782V9.49503H53.7049V8.25753H50.2782M45.0539 7.07628H47.1885V5.50128H40.7846V7.07628H42.9192V12.2513H45.0539M34.9423 5.55753H32.8077V12.3075H34.9423V9.66378H37.6949V12.3075H39.8296V5.55753H37.6949V8.08878H34.9423M26.0666 5.55753H24.0443V12.3075H26.9654L29.3248 7.86378H29.381V12.3075H31.4033V5.55753H28.5945L26.1228 10.0013H26.0666M16.236 5.61378V10.0013C16.236 10.6763 16.0113 10.9013 15.4495 10.9013C15.1686 10.9013 15.0001 10.9013 14.7754 10.845V12.3075C15.1125 12.3638 15.3933 12.3638 15.8427 12.3638C17.4718 12.3638 18.2021 11.4075 18.2021 9.94503V7.13253H20.5053V12.3075H22.6399V5.55753M10.2814 7.07628H13.9328V5.61378H8.2029V12.3638H14.0451V10.9013H10.3376V9.60753H13.7642V8.37003H10.3376M2.52919 9.60753H3.98975C4.60768 9.60753 4.83238 9.72003 4.83238 10.2825C4.83238 10.7888 4.60768 10.9013 3.98975 10.9575H2.52919M6.23676 5.61378H0.394531V12.3638H4.49533C6.12441 12.3638 6.96704 11.8013 6.96704 10.2825C6.96704 8.76378 6.12441 8.20128 4.49533 8.20128H2.52919V7.02003H6.23676M0.450707 14.1638H3.2033V14.7263H2.19214V16.7513H1.40569V14.7263H0.450707M3.6527 14.1638H4.38298V14.5575C4.49533 14.445 4.60768 14.3325 4.7762 14.22C4.94473 14.1075 5.16943 14.1075 5.33796 14.1075C5.67501 14.1075 6.01206 14.22 6.23676 14.445C6.46146 14.67 6.62999 15.0075 6.62999 15.4575C6.62999 15.9075 6.51764 16.245 6.23676 16.47C6.01206 16.695 5.67501 16.8075 5.33796 16.8075C5.16943 16.8075 5.00091 16.7513 4.88855 16.695C4.7762 16.6388 4.60768 16.5263 4.43915 16.4138V17.7075H3.6527M4.43915 15.4013C4.43915 15.6825 4.49533 15.9075 4.66385 16.02C4.7762 16.1325 4.94473 16.245 5.16943 16.245C5.33796 16.245 5.50648 16.1888 5.61883 16.0763C5.73118 15.9638 5.78736 15.7388 5.78736 15.4575C5.78736 15.1763 5.73118 15.0075 5.61883 14.8388C5.50648 14.67 5.33796 14.6138 5.16943 14.6138C4.94473 14.6138 4.83238 14.67 4.66385 14.7825C4.49533 14.9513 4.43915 15.12 4.43915 15.4013ZM7.86585 14.9513L7.13557 14.8388C7.19174 14.6138 7.36027 14.3888 7.58497 14.2763C7.80967 14.1638 8.09055 14.1075 8.48377 14.1075C8.82083 14.1075 9.1017 14.1638 9.27023 14.22C9.43875 14.2763 9.5511 14.3888 9.66345 14.5013C9.71963 14.6138 9.7758 14.8388 9.7758 15.12V15.9075C9.7758 16.1325 9.7758 16.3013 9.83198 16.4138C9.83198 16.5263 9.88815 16.6388 10.0005 16.7513H9.21405C9.21405 16.695 9.15788 16.6388 9.15788 16.5263C9.15788 16.47 9.15788 16.47 9.1017 16.47C8.98935 16.5825 8.82082 16.695 8.6523 16.7513C8.48377 16.8075 8.31525 16.8638 8.14672 16.8638C7.80967 16.8638 7.58497 16.8075 7.41644 16.6388C7.24792 16.47 7.13557 16.3013 7.13557 16.0763C7.13557 15.9075 7.19174 15.795 7.24792 15.6825C7.30409 15.57 7.47262 15.4575 7.58497 15.4013C7.75349 15.345 7.92202 15.2888 8.2029 15.2325C8.59612 15.1763 8.82082 15.12 8.98935 15.0638V15.0075C8.98935 14.895 8.93318 14.7825 8.877 14.7263C8.82083 14.67 8.6523 14.67 8.4276 14.67C8.25907 14.67 8.14672 14.67 8.09055 14.7263M8.93318 15.5138C8.82082 15.57 8.6523 15.57 8.4276 15.6263C8.2029 15.6825 8.03437 15.6825 7.9782 15.7388C7.92202 15.795 7.86585 15.8513 7.86585 15.9638C7.86585 16.0763 7.92202 16.1325 7.9782 16.1888C8.09055 16.245 8.14672 16.3013 8.31525 16.3013C8.48377 16.3013 8.59612 16.245 8.70847 16.1888C8.82082 16.1325 8.877 16.0763 8.877 15.9638C8.877 15.9075 8.93318 15.795 8.93318 15.6263M10.5061 14.1638H11.2925V15.12H12.4722V14.1638H13.2587V16.7513H12.4722V15.6825H11.2925V16.7513H10.5061M16.7415 14.895L15.9551 15.0075C15.9551 14.895 15.8427 14.7825 15.7866 14.7263C15.6742 14.67 15.5619 14.6138 15.3933 14.6138C15.1686 14.6138 15.0563 14.67 14.8878 14.7825C14.7754 14.895 14.7192 15.12 14.7192 15.4013C14.7192 15.6825 14.7754 15.9075 14.8878 16.0763C15.0001 16.1888 15.1686 16.245 15.3933 16.245C15.5619 16.245 15.6742 16.1888 15.7866 16.1325C15.8989 16.0763 15.9551 15.9075 16.0113 15.7388L16.7977 15.8513C16.7415 16.1888 16.573 16.4138 16.3483 16.5263C16.1236 16.695 15.7866 16.7513 15.3933 16.7513C14.9439 16.7513 14.6069 16.6388 14.326 16.4138C14.0451 16.1888 13.9328 15.8513 13.9328 15.4013C13.9328 14.9513 14.0451 14.6138 14.326 14.3888C14.6069 14.1638 14.9439 14.0513 15.3933 14.0513C15.7866 14.0513 16.0674 14.1075 16.2921 14.2763C16.5168 14.445 16.6292 14.6138 16.7415 14.895ZM17.3033 14.1638H19.9997V16.7513H19.2133V14.7263H18.1459V16.7513H17.3595M20.73 15.4013C20.73 15.1763 20.7862 14.9513 20.9547 14.7263C21.067 14.5013 21.2917 14.3325 21.5164 14.22C21.7411 14.1075 22.022 14.0513 22.3029 14.0513C22.7523 14.0513 23.1455 14.1638 23.4264 14.445C23.7073 14.7263 23.8758 15.0075 23.8758 15.4013C23.8758 15.795 23.7073 16.1325 23.4264 16.3575C23.1455 16.6388 22.7523 16.7513 22.3029 16.7513C22.022 16.7513 21.7411 16.695 21.5164 16.5825C21.2356 16.47 21.067 16.3013 20.9547 16.1325M21.5726 15.4575C21.5726 15.7388 21.6288 15.9075 21.7973 16.0763C21.9658 16.1888 22.1344 16.3013 22.3029 16.3013C22.4714 16.3013 22.6961 16.245 22.8085 16.0763C22.977 15.9638 23.0332 15.7388 23.0332 15.4575C23.0332 15.1763 22.977 15.0075 22.8085 14.895C22.6399 14.7825 22.4714 14.67 22.3029 14.67C22.1344 14.67 21.9097 14.7263 21.7973 14.895C21.6288 15.0075 21.5726 15.1763 21.5726 15.4575ZM24.4937 14.1638H25.224V14.5575C25.3364 14.445 25.4487 14.3325 25.6172 14.22C25.7858 14.1638 25.9543 14.1075 26.179 14.1075C26.516 14.1075 26.8531 14.22 27.0778 14.445C27.3025 14.67 27.471 15.0075 27.471 15.4575C27.471 15.9075 27.3587 16.245 27.0778 16.47C26.8531 16.695 26.516 16.8075 26.179 16.8075C26.0105 16.8075 25.8419 16.7513 25.7296 16.695C25.6172 16.6388 25.4487 16.5263 25.2802 16.4138V17.7075H24.4937M25.2802 15.4013C25.2802 15.6825 25.3364 15.9075 25.5049 16.02C25.6172 16.1325 25.7858 16.245 26.0105 16.245C26.179 16.245 26.3475 16.1888 26.4599 16.0763C26.5722 15.9638 26.6284 15.7388 26.6284 15.4575C26.6284 15.1763 26.5722 15.0075 26.4599 14.8388C26.3475 14.7263 26.179 14.6138 26.0105 14.6138C25.7858 14.6138 25.6734 14.67 25.5049 14.7825C25.3364 14.9513 25.2802 15.12 25.2802 15.4013ZM27.6395 14.1638H30.3921V14.7263H29.4372V16.7513H28.6507V14.7263H27.6957M30.8415 14.1638H31.628V15.12H32.8077V14.1638H33.5941V16.7513H32.8077V15.6825H31.628V16.7513H30.8415M34.2682 15.4013C34.2682 15.1763 34.3244 14.9513 34.4929 14.7263C34.6053 14.5013 34.83 14.3325 35.0547 14.22C35.2794 14.1075 35.5603 14.0513 35.8411 14.0513C36.2905 14.0513 36.6838 14.1638 36.9646 14.445C37.2455 14.7263 37.4141 15.0075 37.4141 15.4013C37.4141 15.795 37.2455 16.1325 36.9646 16.3575C36.6838 16.6388 36.2905 16.7513 35.8411 16.7513C35.5603 16.7513 35.2794 16.695 35.0547 16.5825C34.7738 16.47 34.6053 16.3013 34.4929 16.1325M35.1109 15.4575C35.1109 15.7388 35.167 15.9075 35.3356 16.0763C35.5041 16.1888 35.6726 16.3013 35.8411 16.3013C36.0658 16.3013 36.2344 16.245 36.3467 16.0763C36.5152 15.9638 36.5714 15.7388 36.5714 15.4575C36.5714 15.1763 36.5152 15.0075 36.3467 14.895C36.1782 14.7825 36.0097 14.67 35.8411 14.67C35.6164 14.67 35.4479 14.7263 35.3356 14.895C35.167 15.0075 35.1109 15.1763 35.1109 15.4575ZM37.9758 15.795V15.12H39.5487V15.795M40.2228 14.1638H42.9192V16.7513H42.1328V14.7263H41.0093V15.9075C41.0093 16.1888 40.9531 16.4138 40.8969 16.5263C40.8407 16.6388 40.7284 16.7513 40.616 16.7513C40.5037 16.8075 40.3352 16.8075 40.1666 16.8075C40.0543 16.8075 39.8858 16.8075 39.6611 16.7513V16.245H39.9419C40.0543 16.245 40.1105 16.1888 40.1666 16.1325C40.1666 16.0763 40.2228 15.9075 40.2228 15.6263M43.481 15.4013C43.481 15.1763 43.5372 14.9513 43.7057 14.7263C43.818 14.5013 44.0427 14.3325 44.2674 14.22C44.4921 14.1075 44.773 14.0513 45.0539 14.0513C45.5033 14.0513 45.8965 14.1638 46.1774 14.445C46.4583 14.7263 46.6268 15.0075 46.6268 15.4013C46.6268 15.795 46.4583 16.1325 46.1774 16.3575C45.8965 16.6388 45.5033 16.7513 45.0539 16.7513C44.773 16.7513 44.4921 16.695 44.2674 16.5825C43.9866 16.47 43.818 16.3013 43.7057 16.1325C43.5372 15.9638 43.481 15.6825 43.481 15.4013ZM44.3236 15.4575C44.3236 15.7388 44.3798 15.9075 44.5483 16.0763C44.7168 16.1888 44.8854 16.3013 45.0539 16.3013C45.2224 16.3013 45.4471 16.245 45.5595 16.0763C45.728 15.9638 45.7842 15.7388 45.7842 15.4575C45.7842 15.1763 45.728 15.0075 45.5595 14.895C45.3909 14.7825 45.2224 14.67 45.0539 14.67C44.8854 14.67 44.6607 14.7263 44.5483 14.895C44.3798 15.0075 44.3236 15.1763 44.3236 15.4575ZM47.2447 14.1638H49.3232V14.7263H48.0874V16.7513H47.3009M49.6603 14.1638H50.4467V15.795L51.6826 14.1638H52.469V16.7513H51.6826V15.0638L50.4467 16.7513H49.6603M55.9519 14.895L55.1654 15.0075C55.1654 14.895 55.0531 14.7825 54.9969 14.7263C54.8846 14.67 54.7722 14.6138 54.6037 14.6138C54.379 14.6138 54.2666 14.67 54.0981 14.7825C53.9858 14.895 53.9296 15.12 53.9296 15.4013C53.9296 15.6825 53.9858 15.9075 54.0981 16.0763C54.2105 16.1888 54.379 16.245 54.6037 16.245C54.7722 16.245 54.8846 16.1888 54.9969 16.1325C55.1093 16.0763 55.1654 15.9075 55.2216 15.7388L56.0081 15.8513C55.9519 16.1888 55.7834 16.4138 55.5587 16.5263C55.334 16.695 54.9969 16.7513 54.6037 16.7513C54.1543 16.7513 53.8172 16.6388 53.5364 16.4138C53.2555 16.1888 53.1431 15.8513 53.1431 15.4013C53.1431 14.9513 53.2555 14.6138 53.5364 14.3888C53.8172 14.1638 54.1543 14.0513 54.6037 14.0513C54.9969 14.0513 55.2778 14.1075 55.5025 14.2763M56.2328 14.1638H58.9854V14.7263H58.0304V16.7513H57.2439V14.7263H56.2889M59.4348 14.1638H60.2212V15.795L61.4571 14.1638H62.2435V16.7513H61.4571V15.0638L60.2212 16.7513H59.4348M62.9738 14.1638H63.8164V14.7825C63.8164 14.9513 63.8164 15.0075 63.8726 15.12L64.0411 15.2888C64.1535 15.345 64.2658 15.345 64.4344 15.345C64.6029 15.345 64.7152 15.345 64.9399 15.2888V14.1638H65.7264V16.7513H64.9399V15.7388C64.6029 15.795 64.3782 15.8513 64.2097 15.8513C63.985 15.8513 63.7603 15.795 63.5356 15.7388C63.3109 15.6263 63.1985 15.5138 63.1423 15.4013C63.0862 15.2325 63.03 15.0638 63.03 14.8388M68.2543 15.9075L69.0407 16.02C68.9284 16.245 68.7599 16.47 68.5352 16.5825C68.3105 16.695 68.0296 16.8075 67.6925 16.8075C67.187 16.8075 66.7937 16.6388 66.5129 16.3575C66.2882 16.1325 66.232 15.795 66.232 15.4575C66.232 15.0075 66.3443 14.67 66.6252 14.445C66.9061 14.22 67.2431 14.1075 67.6364 14.1075C68.0858 14.1075 68.4228 14.22 68.7037 14.5013C68.9846 14.7825 69.0969 15.12 69.0969 15.6825H67.0746C67.0746 15.9075 67.1308 16.02 67.2431 16.1325C67.3555 16.245 67.524 16.3013 67.6925 16.3013C67.8049 16.3013 67.9172 16.245 68.0296 16.1888C68.1419 16.1325 68.1981 16.02 68.2543 15.9075ZM68.3105 15.2325C68.3105 15.0075 68.2543 14.895 68.1419 14.7825C68.0296 14.67 67.8611 14.6138 67.7487 14.6138C67.5802 14.6138 67.4117 14.67 67.2993 14.7825C67.187 14.895 67.1308 15.0638 67.1308 15.2325M72.3551 14.895L71.5686 15.0075C71.5686 14.895 71.4563 14.7825 71.4001 14.7263C71.2878 14.67 71.1754 14.6138 71.0069 14.6138C70.7822 14.6138 70.6698 14.67 70.5013 14.7825C70.3889 14.895 70.3328 15.12 70.3328 15.4013C70.3328 15.6825 70.3889 15.9075 70.5013 16.0763C70.6136 16.1888 70.7822 16.245 71.0069 16.245C71.1754 16.245 71.2878 16.1888 71.4001 16.1325C71.5125 16.0763 71.5686 15.9075 71.6248 15.7388L72.4113 15.8513C72.3551 16.1888 72.1866 16.4138 71.9619 16.5263C71.7372 16.695 71.4001 16.7513 71.0069 16.7513C70.5575 16.7513 70.2204 16.6388 69.9395 16.4138C69.6587 16.1888 69.5463 15.8513 69.5463 15.4013C69.5463 14.9513 69.6587 14.6138 69.9395 14.3888C70.2204 14.1638 70.5575 14.0513 71.0069 14.0513C71.4001 14.0513 71.681 14.1075 71.9057 14.2763M72.9168 14.1638H73.7033V15.2325C73.8156 15.2325 73.928 15.1763 73.9842 15.12C74.0403 15.0638 74.0965 14.9513 74.2089 14.7263C74.3212 14.445 74.4336 14.3325 74.5459 14.22C74.6583 14.1638 74.8268 14.1075 75.0515 14.1075H75.3885V14.5575C75.1638 14.5575 75.0515 14.5575 74.9953 14.6138C74.9391 14.67 74.883 14.7825 74.8268 14.9513C74.7144 15.1763 74.6021 15.345 74.4336 15.4013C74.7144 15.4575 74.883 15.6263 75.0515 15.9638C75.0515 15.9638 75.0515 16.02 75.1077 16.02L75.5571 16.7513H74.7144L74.3212 16.02C74.265 15.8513 74.1527 15.795 74.0965 15.7388C74.0403 15.6825 73.928 15.6825 73.8156 15.6825V16.8075H73.0292M75.8941 14.1638H76.6806V15.795L77.9164 14.1638H78.7029V16.7513H77.9164V15.0638L76.6806 16.7513H75.8941M79.4893 14.1638H80.2758V15.795L81.5117 14.1638H82.2981V16.7513H81.5117V15.0638L80.2758 16.7513H79.4893M81.3993 13.095H81.7925C81.7925 13.32 81.6802 13.4888 81.5117 13.6013C81.3431 13.7138 81.1184 13.77 80.8937 13.77C80.6128 13.77 80.4443 13.7138 80.2758 13.6013C80.1073 13.4888 80.0511 13.32 79.9949 13.095H80.3882C80.3882 13.2075 80.4443 13.32 80.5567 13.3763C80.6128 13.4325 80.7814 13.4888 80.8937 13.4888C81.0061 13.4888 81.1746 13.4325 81.2308 13.3763M84.7136 14.1638H85.5001V16.1888H86.6236V14.1638H87.4101V16.1888H87.7471V17.4263H87.073V16.7513H84.6575M90.1627 15.9075L90.9491 16.02C90.8367 16.245 90.6682 16.47 90.4435 16.5825C90.2188 16.695 89.938 16.8075 89.6009 16.8075C89.0953 16.8075 88.7021 16.6388 88.4212 16.3575C88.1965 16.1325 88.1403 15.795 88.1403 15.4575C88.1403 15.0075 88.2527 14.67 88.5336 14.445C88.8144 14.22 89.1515 14.1075 89.5447 14.1075C89.9941 14.1075 90.3312 14.22 90.6121 14.5013C90.8929 14.7825 91.0053 15.12 91.0053 15.6825H88.983C88.983 15.9075 89.0391 16.02 89.1515 16.1325C89.2638 16.245 89.4324 16.3013 89.6009 16.3013C89.7132 16.3013 89.8256 16.245 89.938 16.1888M90.1627 15.2325C90.1627 15.0075 90.1065 14.895 89.9941 14.7825C89.8818 14.67 89.7132 14.6138 89.6009 14.6138C89.4324 14.6138 89.2638 14.67 89.1515 14.7825C89.0391 14.895 88.983 15.0638 88.983 15.2325M91.6232 14.1638H92.4097V15.12H93.5893V14.1638H94.3758V16.7513H93.5893V15.6825H92.4097V16.7513H91.6232M94.8252 14.1638H97.5778V14.7263H96.6228V16.7513H95.8364V14.7263H94.8814M98.0272 14.1638H98.7575V14.5575C98.8698 14.445 98.9822 14.3325 99.1507 14.22C99.3192 14.1638 99.4877 14.1075 99.7124 14.1075C100.049 14.1075 100.387 14.22 100.611 14.445C100.836 14.67 101.004 15.0075 101.004 15.4575C101.004 15.9075 100.892 16.245 100.611 16.47C100.387 16.695 100.049 16.8075 99.7124 16.8075C99.5439 16.8075 99.3754 16.7513 99.263 16.695C99.1507 16.6388 98.9822 16.5263 98.8136 16.4138V17.7075H98.0272M98.8698 15.4013C98.8698 15.6825 98.926 15.9075 99.0945 16.02C99.2069 16.1325 99.3754 16.245 99.6001 16.245C99.7686 16.245 99.9372 16.1888 100.05 16.0763C100.162 15.9638 100.218 15.7388 100.218 15.4575C100.218 15.1763 100.162 15.0075 100.05 14.8388C99.9372 14.7263 99.7686 14.6138 99.6001 14.6138C99.3754 14.6138 99.263 14.67 99.0945 14.7825C98.926 14.9513 98.8698 15.12 98.8698 15.4013Z" fill="white"/>
</g>
<defs>
<clipPath id="clip0_445_8120">
<rect width="141" height="18" fill="white"/>
</clipPath>
</defs>
</svg>
