<svg width="26" height="27" viewBox="0 0 26 27" fill="none" xmlns="http://www.w3.org/2000/svg">
<path d="M6.89045 23.4906C6.89045 23.0551 6.89045 22.6197 6.89045 22.1842C6.89355 22.1664 6.89292 22.1481 6.88861 22.1306C6.8843 22.113 6.8764 22.0965 6.86539 22.0821C6.85438 22.0677 6.8405 22.0557 6.82461 22.0468C6.80872 22.0379 6.79116 22.0324 6.77301 22.0305C5.68274 21.7239 4.67643 21.1776 3.82907 20.4324C3.21168 19.8764 2.69763 19.2175 2.31032 18.4856C1.76441 17.4284 1.4011 16.2881 1.23545 15.1122C1.03021 13.637 0.958932 12.1466 1.02247 10.6589C1.0364 9.9653 1.07223 9.27958 1.15185 8.58598C1.27883 7.26792 1.61469 5.97788 2.1471 4.76326C2.80452 3.26984 3.99718 2.07024 5.49512 1.39573C6.51551 0.933478 7.589 0.596012 8.69185 0.390792C9.77338 0.187998 10.8684 0.0635285 11.9682 0.0183732C12.9596 -0.0163325 13.9521 -0.00186431 14.942 0.0617236C16.3588 0.120925 17.7628 0.353231 19.1221 0.753358C20.1298 1.04094 21.0886 1.47596 21.9665 2.04402C22.8219 2.62533 23.5137 3.41262 23.9769 4.33173C24.5214 5.40522 24.8915 6.55698 25.0736 7.74459C25.192 8.44967 25.2697 9.16084 25.3065 9.87466C25.3583 10.7594 25.3523 11.6481 25.3185 12.5289C25.2846 13.4097 25.209 14.2649 25.0995 15.1279C24.9611 16.4233 24.5589 17.6775 23.9172 18.8147C23.0818 20.2533 21.7437 21.3396 20.1551 21.8689C19.0689 22.2455 17.9473 22.5135 16.8071 22.6689C15.9731 22.7832 15.1371 22.866 14.2971 22.8995C13.6542 22.929 13.0112 22.9211 12.3683 22.9113C12.004 22.9113 11.6418 22.8758 11.2795 22.8443C11.2439 22.8377 11.2072 22.8416 11.1739 22.8556C11.1406 22.8697 11.1122 22.8931 11.0924 22.9231C10.3599 23.7941 9.59952 24.6414 8.83318 25.4847C8.69359 25.6386 8.53196 25.7714 8.35347 25.8788C8.2363 25.9549 8.1027 26.0027 7.96345 26.0182C7.8242 26.0338 7.6832 26.0167 7.55185 25.9684C7.42049 25.92 7.30246 25.8418 7.20728 25.74C7.11209 25.6382 7.04243 25.5156 7.00391 25.3823C6.92806 25.1452 6.89044 24.8979 6.89244 24.6492C6.89045 24.2591 6.89045 23.8749 6.89045 23.4906ZM7.77622 25.1438L7.86978 25.0571L9.53184 23.2305C10.1715 22.5277 10.8104 21.8242 11.4487 21.1201C11.4801 21.0772 11.5224 21.0432 11.5714 21.0218C11.6203 21.0003 11.6741 20.9921 11.7274 20.998C11.9443 21.0196 12.1613 21.0275 12.3802 21.0295C13.1366 21.0295 13.893 21.0295 14.6494 20.9763C15.3361 20.9231 16.0209 20.8403 16.7016 20.7339C17.4346 20.6076 18.1601 20.4425 18.8752 20.2393C20.4676 19.8157 21.6997 18.9093 22.4741 17.4413C22.9312 16.5387 23.2179 15.5611 23.32 14.5565C23.441 13.6097 23.5134 12.6574 23.537 11.7033C23.5723 10.5047 23.4896 9.30561 23.2902 8.12292C23.1519 7.26605 22.903 6.4303 22.5497 5.63618C22.0998 4.65095 21.4629 3.83517 20.4816 3.31103C18.9768 2.50708 17.3485 2.14845 15.6705 1.9652C15.1948 1.91397 14.7191 1.88638 14.2414 1.86864C13.2632 1.81872 12.2829 1.82399 11.3054 1.88441C10.6023 1.93606 9.90308 2.0295 9.21137 2.16421C8.19413 2.34778 7.21006 2.67981 6.29131 3.14945C5.75868 3.41587 5.27546 3.76964 4.86214 4.19577C4.19227 4.93694 3.7009 5.81883 3.425 6.77511C3.09769 7.88884 2.91902 9.04017 2.89354 10.1998C2.82949 11.3594 2.84412 12.522 2.93733 13.6796C2.99532 14.3686 3.11184 15.0515 3.28566 15.721C3.54428 16.7645 4.046 17.7335 4.75067 18.5506C5.51144 19.3843 6.49471 19.9881 7.58713 20.2925C7.72447 20.3339 7.78618 20.3812 7.78618 20.5349C7.77423 21.1024 7.78618 21.6699 7.78618 22.2374L7.77622 25.1438Z"/>
<path d="M6.38469 7.54388C6.37075 7.11235 6.60762 6.79904 6.89426 6.51727C7.27229 6.15877 7.68879 5.84227 8.13632 5.57341C8.3404 5.44882 8.58305 5.40135 8.81966 5.43972C9.05627 5.4781 9.27093 5.59974 9.42418 5.78228C9.96566 6.34574 10.4503 6.96015 10.8713 7.61679C11.0797 7.91216 11.2371 8.23978 11.337 8.58626C11.377 8.72147 11.3796 8.8648 11.3446 9.00134C11.3096 9.13788 11.2382 9.26263 11.138 9.36262C10.9084 9.58577 10.6636 9.79315 10.4055 9.98332C10.2754 10.0859 10.1787 10.2242 10.1274 10.3808C10.0761 10.5374 10.0724 10.7055 10.1169 10.8641C10.2763 11.6091 10.6375 12.2971 11.1619 12.8543C11.799 13.6243 12.62 14.225 13.5505 14.6021C13.7791 14.7185 14.0411 14.7539 14.2929 14.7026C14.4308 14.6653 14.5534 14.5861 14.6433 14.476C14.7826 14.3006 14.9339 14.1312 15.0593 13.944C15.2219 13.7105 15.4703 13.5491 15.7514 13.4942C16.0325 13.4394 16.3241 13.4954 16.5641 13.6504C17.2388 14.0379 17.8758 14.4865 18.467 14.9903C18.6063 15.1085 18.7516 15.2228 18.891 15.343C19.0558 15.4675 19.1749 15.642 19.2299 15.8399C19.2849 16.0378 19.2728 16.2481 19.1955 16.4386C19.0725 16.7588 18.8933 17.055 18.6661 17.3135C18.3837 17.702 18.024 18.0292 17.6091 18.2751C17.4108 18.3904 17.1879 18.4581 16.9584 18.4728C16.7289 18.4875 16.4991 18.4488 16.2874 18.3598C14.677 17.7179 13.1722 16.8419 11.8227 15.7607C10.5028 14.6851 9.34934 13.4237 8.39907 12.0168C7.59947 10.8522 6.96333 9.58542 6.5081 8.25128C6.45963 8.08992 6.41976 7.92614 6.38867 7.76063C6.37982 7.68871 6.37849 7.61607 6.38469 7.54388V7.54388Z"/>
<path d="M13.2537 5.44716C14.6011 5.47182 15.897 5.96384 16.9155 6.83743C17.9341 7.71102 18.6105 8.91078 18.8271 10.2275C18.9143 10.7063 18.9609 11.1914 18.9664 11.6778C18.9664 11.7921 18.9366 11.8748 18.8131 11.8867C18.6897 11.8985 18.6579 11.794 18.6579 11.6896C18.6764 10.7057 18.4723 9.73016 18.0607 8.8344C17.7141 8.09837 17.2006 7.45142 16.5602 6.9439C15.9198 6.43639 15.1697 6.08198 14.3684 5.90825C13.9447 5.81115 13.5114 5.76092 13.0765 5.7585C13.0342 5.75922 12.992 5.75391 12.9511 5.74273C12.9164 5.73303 12.8868 5.71035 12.8686 5.67948C12.8504 5.6486 12.845 5.61194 12.8536 5.57721C12.8539 5.56074 12.8574 5.54448 12.8641 5.52939C12.8708 5.51429 12.8804 5.50066 12.8924 5.48929C12.9045 5.47792 12.9187 5.46904 12.9342 5.46316C12.9498 5.45728 12.9663 5.45452 12.983 5.45505C13.0726 5.44322 13.1641 5.44716 13.2537 5.44716Z"/>
<path d="M17.0983 10.7911C17.0916 10.2437 16.9554 9.70541 16.7006 9.21949C16.4459 8.73357 16.0796 8.31352 15.6313 7.99303C15.108 7.62914 14.4996 7.40331 13.8637 7.33686C13.7562 7.32306 13.6487 7.31715 13.5392 7.30533C13.4298 7.29351 13.3641 7.24819 13.374 7.13784C13.384 7.02749 13.4537 6.98809 13.5731 6.99597C15.3367 7.10237 16.8375 8.08958 17.2993 9.92803C17.3838 10.2825 17.4259 10.6456 17.4247 11.0098C17.4247 11.0433 17.4247 11.0768 17.4247 11.1083C17.4247 11.2069 17.361 11.2719 17.2635 11.2699C17.2418 11.2692 17.2206 11.2641 17.201 11.255C17.1814 11.2459 17.1639 11.2329 17.1496 11.2168C17.1352 11.2008 17.1243 11.182 17.1176 11.1617C17.1108 11.1413 17.1083 11.1198 17.1102 11.0985C17.0943 11.0059 17.0983 10.9113 17.0983 10.7911Z"/>
<path d="M14.0079 8.59567C14.9752 8.6607 15.65 9.12967 15.8351 10.1484C15.8576 10.2789 15.8735 10.4104 15.8829 10.5425C15.8829 10.6489 15.859 10.7395 15.7416 10.7395C15.6241 10.7395 15.5843 10.6607 15.5804 10.5425C15.5793 10.152 15.4577 9.77113 15.232 9.45086C14.9948 9.16078 14.6543 8.97178 14.2806 8.92277C14.197 8.9073 14.1126 8.89677 14.0278 8.89124C13.8884 8.89124 13.8108 8.82228 13.8287 8.71587C13.8466 8.60946 13.9302 8.58976 14.0079 8.59567Z" fill="#2861CF"/>
</svg>
