<svg width="30" height="21" viewBox="0 0 30 21" fill="none" xmlns="http://www.w3.org/2000/svg">  
    <path d="M28.5162 3.24017C28.1842 1.96472 27.2059 0.960354 25.9637 0.619486C23.7125 0 14.6847 0 14.6847 0C14.6847 0 5.65696 0 3.40563 0.619486C2.16342 0.960354 1.18514 1.96472 0.853143 3.24017C0.25 5.55178 0.25 10.375 0.25 10.375C0.25 10.375 0.25 15.198 0.853143 17.5098C1.18514 18.7852 2.16342 19.7896 3.40563 20.1306C5.65696 20.7499 14.6847 20.7499 14.6847 20.7499C14.6847 20.7499 23.7125 20.7499 25.9637 20.1306C27.2059 19.7896 28.1842 18.7852 28.5162 17.5098C29.1195 15.198 29.1195 10.375 29.1195 10.375C29.1195 10.375 29.1195 5.55178 28.5162 3.24017" />
    <path d="M11.9785 15.3367V6.31503L19.1959 10.8261L11.9785 15.3367Z"/>
</svg>

